<svg id="svg" version="1.1" xmlns="http://www.w3.org/2000/svg" xmlns:xlink="http://www.w3.org/1999/xlink" width="400" height="225" viewBox="0, 0, 400,225"><g id="svgg"><path id="path0" d="M47.292 48.954 C 47.807 49.036,48.417 49.170,48.646 49.253 C 48.913 49.350,48.875 49.289,48.542 49.084 C 48.255 48.909,47.646 48.774,47.188 48.785 L 46.354 48.806 47.292 48.954 M97.836 50.305 C 97.461 50.877,97.423 51.042,97.663 51.042 C 97.752 51.042,97.931 50.760,98.061 50.417 C 98.348 49.657,98.282 49.625,97.836 50.305 M103.179 50.833 C 104.178 51.369,104.454 51.369,103.646 50.833 C 103.302 50.606,102.882 50.419,102.711 50.418 C 102.541 50.417,102.752 50.604,103.179 50.833 M41.889 50.921 C 41.687 51.164,41.720 51.197,42.071 51.105 C 42.307 51.044,42.500 50.910,42.500 50.809 C 42.500 50.528,42.164 50.590,41.889 50.921 M39.173 52.235 C 38.900 52.543,38.908 52.564,39.243 52.435 C 39.449 52.356,39.657 52.292,39.705 52.292 C 39.752 52.292,39.792 52.198,39.792 52.083 C 39.792 51.777,39.522 51.843,39.173 52.235 M105.833 52.089 C 105.833 52.270,106.642 52.594,106.771 52.465 C 106.812 52.424,106.617 52.284,106.339 52.153 C 106.061 52.022,105.833 51.993,105.833 52.089 M36.250 53.554 C 35.414 53.995,35.480 54.060,36.427 53.730 C 36.788 53.604,37.083 53.416,37.083 53.313 C 37.083 53.210,37.060 53.135,37.031 53.148 C 37.003 53.160,36.651 53.343,36.250 53.554 M29.579 56.776 C 29.434 56.951,29.357 57.135,29.409 57.186 C 29.460 57.237,29.660 57.094,29.853 56.869 C 30.046 56.643,30.123 56.458,30.023 56.458 C 29.924 56.458,29.724 56.601,29.579 56.776 M52.093 56.563 C 52.088 56.872,52.460 57.401,52.591 57.270 C 52.653 57.208,52.567 56.976,52.400 56.756 C 52.233 56.535,52.095 56.448,52.093 56.563 M28.958 58.634 C 28.958 58.799,29.052 58.992,29.167 59.063 C 29.281 59.133,29.375 58.998,29.375 58.762 C 29.375 58.526,29.281 58.333,29.167 58.333 C 29.052 58.333,28.958 58.468,28.958 58.634 M31.730 64.684 C 31.967 65.198,32.189 65.589,32.224 65.554 C 32.334 65.443,31.610 63.750,31.452 63.750 C 31.369 63.750,31.494 64.170,31.730 64.684 M35.007 71.823 C 35.010 71.909,35.164 72.167,35.347 72.396 C 35.641 72.762,35.665 72.766,35.549 72.431 C 35.476 72.221,35.417 71.963,35.417 71.858 C 35.417 71.753,35.323 71.667,35.208 71.667 C 35.094 71.667,35.003 71.737,35.007 71.823 M59.491 72.490 C 59.572 72.771,59.767 73.130,59.923 73.286 C 60.351 73.714,60.264 73.313,59.774 72.604 C 59.385 72.040,59.358 72.029,59.491 72.490 M61.369 76.250 C 61.446 76.536,61.596 76.911,61.702 77.083 C 61.836 77.301,61.852 77.237,61.756 76.875 C 61.679 76.589,61.529 76.214,61.423 76.042 C 61.289 75.824,61.273 75.888,61.369 76.250 M108.542 78.941 C 108.542 79.047,108.482 79.304,108.409 79.514 C 108.293 79.850,108.318 79.845,108.611 79.479 C 108.998 78.996,109.045 78.750,108.750 78.750 C 108.635 78.750,108.542 78.836,108.542 78.941 M82.961 82.298 C 82.660 82.779,82.645 82.917,82.892 82.917 C 83.060 82.917,83.386 82.067,83.265 81.946 C 83.237 81.917,83.100 82.076,82.961 82.298 M81.676 84.982 C 81.548 85.221,81.531 85.417,81.637 85.417 C 81.851 85.417,82.147 84.786,82.001 84.640 C 81.950 84.589,81.804 84.743,81.676 84.982 M105.145 86.445 C 104.637 87.305,104.715 87.527,105.238 86.710 C 105.479 86.333,105.637 85.984,105.588 85.935 C 105.539 85.886,105.340 86.116,105.145 86.445 M66.458 87.122 C 66.458 87.451,66.942 88.542,67.088 88.542 C 67.182 88.542,67.112 88.237,66.931 87.865 C 66.579 87.140,66.458 86.950,66.458 87.122 M79.815 88.981 C 79.686 89.350,79.618 89.687,79.662 89.732 C 79.707 89.776,79.849 89.512,79.977 89.144 C 80.105 88.775,80.174 88.438,80.129 88.393 C 80.085 88.349,79.943 88.613,79.815 88.981 M44.805 92.604 C 44.805 92.719,44.943 92.994,45.111 93.217 C 45.279 93.439,45.417 93.528,45.417 93.413 C 45.417 93.298,45.279 93.023,45.111 92.800 C 44.943 92.578,44.805 92.490,44.805 92.604 M46.578 96.250 C 46.654 96.536,46.804 96.911,46.910 97.083 C 47.044 97.301,47.061 97.237,46.964 96.875 C 46.887 96.589,46.738 96.214,46.632 96.042 C 46.497 95.824,46.481 95.888,46.578 96.250 M100.260 96.991 C 99.954 97.324,99.928 97.500,100.186 97.500 C 100.364 97.500,100.697 96.873,100.578 96.762 C 100.546 96.733,100.404 96.836,100.260 96.991 M71.683 98.579 C 71.674 98.771,71.792 99.054,71.946 99.208 C 72.099 99.361,72.279 99.626,72.346 99.795 C 72.444 100.046,72.470 100.038,72.484 99.754 C 72.493 99.562,72.374 99.279,72.221 99.126 C 72.068 98.972,71.887 98.708,71.821 98.538 C 71.722 98.288,71.696 98.295,71.683 98.579 M98.356 101.065 C 98.228 101.433,98.160 101.771,98.204 101.815 C 98.249 101.860,98.390 101.595,98.519 101.227 C 98.647 100.859,98.715 100.521,98.671 100.476 C 98.626 100.432,98.485 100.697,98.356 101.065 M73.403 102.172 C 73.562 102.510,73.692 102.596,73.796 102.432 C 74.020 102.081,73.994 101.829,73.750 101.979 C 73.635 102.050,73.542 102.009,73.542 101.887 C 73.542 101.766,73.457 101.667,73.353 101.667 C 73.249 101.667,73.271 101.894,73.403 102.172 M50.170 104.057 C 50.351 104.454,50.527 104.751,50.562 104.715 C 50.680 104.598,50.170 103.333,50.005 103.333 C 49.916 103.333,49.990 103.659,50.170 104.057 M79.816 103.581 C 79.803 103.775,79.866 103.980,79.958 104.036 C 80.202 104.187,80.745 103.801,80.556 103.611 C 80.467 103.522,80.315 103.578,80.218 103.734 C 80.080 103.958,80.021 103.934,79.941 103.624 C 79.858 103.301,79.836 103.294,79.816 103.581 M82.031 104.629 C 82.289 104.754,82.500 104.940,82.500 105.044 C 82.500 105.148,82.606 105.167,82.736 105.087 C 82.976 104.939,82.197 104.383,81.771 104.396 C 81.656 104.400,81.773 104.505,82.031 104.629 M83.542 105.478 C 83.542 105.518,83.776 105.754,84.063 106.003 C 84.349 106.252,84.583 106.373,84.583 106.273 C 84.583 106.172,84.349 105.936,84.063 105.748 C 83.776 105.561,83.542 105.439,83.542 105.478 M84.375 107.155 C 84.375 107.309,84.051 107.609,83.654 107.823 C 83.258 108.036,82.971 108.249,83.018 108.296 C 83.186 108.464,84.583 107.459,84.583 107.171 C 84.583 107.008,84.536 106.875,84.479 106.875 C 84.422 106.875,84.375 107.001,84.375 107.155 M74.167 107.292 C 73.766 107.551,76.168 107.551,76.771 107.292 C 77.062 107.166,76.781 107.109,75.833 107.101 C 75.089 107.095,74.339 107.181,74.167 107.292 M70.208 107.500 C 70.208 107.615,70.495 107.708,70.846 107.708 C 71.217 107.708,71.429 107.622,71.354 107.500 C 71.283 107.385,70.997 107.292,70.717 107.292 C 70.437 107.292,70.208 107.385,70.208 107.500 M51.878 107.850 C 51.884 108.169,52.268 108.635,52.409 108.493 C 52.486 108.416,52.398 108.201,52.212 108.016 C 52.027 107.830,51.876 107.756,51.878 107.850 M93.886 110.462 C 93.730 111.060,93.811 111.117,94.118 110.625 C 94.255 110.407,94.285 110.177,94.186 110.116 C 94.087 110.055,93.952 110.210,93.886 110.462 M63.125 110.521 C 63.125 110.693,63.219 110.833,63.333 110.833 C 63.448 110.833,63.542 110.693,63.542 110.521 C 63.542 110.349,63.448 110.208,63.333 110.208 C 63.219 110.208,63.125 110.349,63.125 110.521 M67.865 114.213 C 68.122 114.337,68.333 114.518,68.333 114.615 C 68.333 114.712,68.427 114.792,68.542 114.792 C 68.939 114.792,68.748 114.441,68.219 114.200 C 67.551 113.896,67.231 113.907,67.865 114.213 M91.719 115.325 C 91.412 115.658,91.386 115.833,91.644 115.833 C 91.822 115.833,92.155 115.206,92.036 115.095 C 92.005 115.066,91.862 115.169,91.719 115.325 M83.149 118.240 C 83.136 118.474,83.013 118.779,82.875 118.917 C 82.681 119.111,82.682 119.167,82.882 119.167 C 83.205 119.167,83.398 118.681,83.271 118.189 C 83.187 117.864,83.170 117.871,83.149 118.240 M57.361 119.464 C 57.492 119.742,57.633 119.937,57.673 119.896 C 57.802 119.767,57.478 118.958,57.297 118.958 C 57.201 118.958,57.230 119.186,57.361 119.464 M60.167 119.625 C 60.361 119.819,60.472 119.819,60.667 119.625 C 60.861 119.431,60.806 119.375,60.417 119.375 C 60.028 119.375,59.972 119.431,60.167 119.625 M81.515 120.558 C 80.915 121.168,80.497 121.667,80.585 121.667 C 80.795 121.667,82.815 119.614,82.696 119.521 C 82.645 119.482,82.114 119.949,81.515 120.558 M58.333 119.792 C 58.333 119.906,58.526 120.000,58.762 120.000 C 58.998 120.000,59.133 119.906,59.063 119.792 C 58.992 119.677,58.799 119.583,58.634 119.583 C 58.468 119.583,58.333 119.677,58.333 119.792 M88.565 122.106 C 88.436 122.475,88.368 122.812,88.412 122.857 C 88.457 122.901,88.599 122.637,88.727 122.269 C 88.855 121.900,88.924 121.563,88.879 121.518 C 88.835 121.474,88.693 121.738,88.565 122.106 M74.323 125.561 C 73.779 125.864,73.378 126.155,73.431 126.209 C 73.485 126.263,73.766 126.151,74.056 125.961 C 74.346 125.771,74.585 125.688,74.587 125.776 C 74.588 125.865,74.659 125.836,74.743 125.711 C 74.827 125.587,75.083 125.379,75.313 125.249 C 75.542 125.119,75.635 125.012,75.521 125.011 C 75.406 125.011,74.867 125.258,74.323 125.561 M71.342 126.996 C 70.972 127.298,70.970 127.315,71.319 127.205 C 71.529 127.138,71.787 127.083,71.892 127.083 C 71.997 127.083,72.083 126.990,72.083 126.875 C 72.083 126.573,71.805 126.619,71.342 126.996 M63.750 129.375 C 63.750 129.490,63.891 129.583,64.063 129.583 C 64.234 129.583,64.375 129.490,64.375 129.375 C 64.375 129.260,64.234 129.167,64.063 129.167 C 63.891 129.167,63.750 129.260,63.750 129.375 M83.385 132.861 C 82.878 133.388,82.814 133.542,83.101 133.542 C 83.288 133.542,84.050 132.501,83.923 132.419 C 83.885 132.395,83.643 132.594,83.385 132.861 M139.438 149.169 C 139.147 149.286,138.907 149.642,138.779 150.145 C 138.480 151.319,138.464 183.840,138.761 184.396 C 139.205 185.225,140.156 185.421,143.058 185.280 C 147.019 185.089,146.958 185.182,146.609 179.822 C 146.117 172.265,147.003 168.796,149.571 168.232 C 152.081 167.680,152.826 170.404,152.489 178.910 C 152.227 185.559,151.993 185.208,156.680 185.208 C 159.837 185.208,160.399 185.013,160.429 183.906 C 160.534 180.087,160.375 166.706,160.216 165.868 C 159.216 160.613,153.560 157.983,148.319 160.336 C 146.625 161.096,146.674 161.248,146.670 155.184 C 146.666 148.514,146.936 148.953,142.849 148.972 C 141.225 148.979,139.690 149.068,139.438 149.169 M237.757 149.174 C 236.832 149.546,236.821 149.859,236.843 177.228 C 236.850 185.871,236.627 185.481,241.423 185.267 C 245.259 185.097,244.895 185.837,244.901 178.194 C 244.907 170.321,245.274 169.038,247.727 168.303 C 250.233 167.552,251.165 170.414,250.822 177.813 C 250.457 185.702,250.193 185.208,254.774 185.208 C 259.190 185.208,258.750 186.245,258.749 175.846 C 258.747 165.176,258.569 164.085,256.454 161.791 C 254.288 159.440,250.044 158.814,246.639 160.342 C 244.858 161.141,244.913 161.306,244.904 155.124 C 244.894 148.436,245.208 148.953,241.166 148.972 C 239.551 148.979,238.017 149.070,237.757 149.174 M212.862 149.531 C 212.333 150.122,212.306 150.710,212.144 165.417 C 211.937 184.234,211.931 183.864,212.443 184.548 L 212.859 185.104 216.009 185.104 C 219.141 185.104,219.161 185.101,219.712 184.550 L 220.265 183.996 220.339 166.981 C 220.389 155.594,220.343 149.834,220.199 149.567 C 219.887 148.983,213.383 148.952,212.862 149.531 M224.688 153.766 C 223.864 154.249,223.806 154.495,223.912 157.065 L 224.014 159.548 223.101 159.728 C 221.802 159.985,221.671 160.369,221.818 163.507 L 221.938 166.076 222.740 166.582 C 223.248 166.903,223.553 167.259,223.572 167.555 C 223.589 167.811,223.612 170.833,223.624 174.271 C 223.648 181.137,223.724 181.655,224.981 183.551 C 226.018 185.114,226.549 185.313,229.688 185.313 C 234.121 185.313,234.586 184.873,234.423 180.833 C 234.316 178.152,234.171 177.831,232.986 177.639 C 231.478 177.394,231.458 177.328,231.459 172.520 C 231.460 167.525,231.605 167.005,233.063 166.770 C 235.077 166.446,234.965 166.619,235.140 163.553 C 235.327 160.290,235.080 159.933,232.500 159.742 L 231.771 159.688 231.667 157.038 C 231.585 154.970,231.488 154.314,231.224 154.050 C 230.785 153.613,225.352 153.376,224.688 153.766 M172.166 159.397 C 160.768 160.702,157.892 178.348,168.137 184.123 C 172.292 186.466,182.952 185.994,185.011 183.376 C 185.719 182.476,185.612 178.101,184.868 177.515 C 184.147 176.948,183.898 176.965,181.618 177.735 C 177.264 179.204,170.417 178.247,170.417 176.168 C 170.417 175.227,170.631 175.196,177.581 175.138 C 185.242 175.075,185.091 175.113,185.595 173.105 C 186.747 168.510,183.126 161.694,178.640 160.016 C 177.612 159.631,177.015 159.530,174.375 159.293 C 173.974 159.257,172.980 159.303,172.166 159.397 M195.521 159.374 C 193.106 159.542,192.204 159.766,190.122 160.715 C 188.345 161.524,188.357 161.501,188.192 164.380 C 187.962 168.409,188.195 168.546,192.942 167.180 C 197.871 165.762,201.875 166.134,201.875 168.010 C 201.875 168.883,201.489 168.990,199.287 168.731 C 195.513 168.286,191.693 168.965,189.435 170.483 C 184.561 173.759,185.313 182.059,190.723 184.691 C 193.384 185.985,199.366 185.925,201.248 184.585 C 201.804 184.189,201.957 184.155,202.095 184.395 C 202.653 185.365,202.658 185.366,205.698 185.228 C 209.812 185.042,209.408 186.247,209.332 174.392 L 209.271 164.688 208.716 163.646 C 206.854 160.152,202.873 158.863,195.521 159.374 M175.127 165.933 C 177.386 166.603,178.434 168.886,176.648 169.243 C 175.247 169.523,171.158 169.392,170.671 169.051 C 168.736 167.695,172.408 165.125,175.127 165.933 M200.284 175.079 C 203.243 176.315,201.851 179.179,198.302 179.158 C 195.430 179.140,193.930 178.219,194.268 176.681 C 194.610 175.122,198.139 174.183,200.284 175.079 " stroke="none" fill="#54c4fc" fill-rule="evenodd"></path><path id="path1" d="M46.042 49.517 C 45.641 49.696,45.172 49.924,45.000 50.025 C 44.828 50.127,44.472 50.302,44.208 50.416 C 43.749 50.614,42.207 51.334,39.063 52.818 C 38.260 53.196,36.995 53.784,36.250 54.124 C 28.165 57.815,28.517 56.828,32.397 64.896 C 34.003 68.236,35.208 70.816,35.208 70.914 C 35.208 71.026,37.123 75.109,39.958 81.042 C 40.642 82.474,41.532 84.349,41.936 85.208 C 42.339 86.068,43.110 87.708,43.648 88.854 C 45.097 91.936,45.928 93.717,46.517 95.000 C 47.830 97.862,48.665 99.649,49.709 101.826 C 50.327 103.117,50.833 104.223,50.833 104.285 C 50.833 104.347,51.408 105.588,52.110 107.043 C 52.812 108.497,53.709 110.391,54.102 111.250 C 54.496 112.109,55.045 113.281,55.322 113.854 C 55.599 114.427,56.299 115.893,56.877 117.113 C 58.057 119.602,58.125 119.650,59.915 119.258 C 60.592 119.110,61.896 118.850,62.813 118.680 C 64.920 118.290,68.483 117.026,69.036 116.473 L 69.457 116.052 68.947 115.499 C 68.667 115.195,67.500 114.499,66.354 113.952 C 59.433 110.652,63.755 106.875,74.454 106.875 C 77.580 106.875,79.868 106.368,80.105 105.623 C 80.221 105.257,79.432 103.595,78.795 102.865 C 78.505 102.532,78.516 102.500,78.926 102.500 C 79.173 102.500,79.375 102.594,79.375 102.708 C 79.375 102.823,79.514 102.917,79.683 102.917 C 79.853 102.917,80.505 103.245,81.132 103.646 C 81.759 104.047,82.373 104.375,82.497 104.375 C 82.803 104.375,83.729 104.962,84.427 105.598 C 86.002 107.033,84.252 108.769,80.625 109.370 C 76.089 110.122,74.746 110.653,74.530 111.781 C 74.346 112.744,75.432 113.460,79.063 114.769 C 85.058 116.930,85.027 118.987,78.929 123.475 C 77.951 124.195,73.673 126.667,73.404 126.667 C 73.363 126.667,72.931 126.850,72.446 127.074 C 70.938 127.769,68.415 128.617,65.260 129.489 C 62.886 130.146,62.879 130.154,63.633 131.641 C 64.537 133.425,64.078 133.348,73.667 133.326 C 83.758 133.303,82.837 133.546,84.275 130.527 C 87.338 124.095,87.917 122.861,87.917 122.757 C 87.917 122.640,88.140 122.159,90.343 117.533 C 91.071 116.004,91.667 114.715,91.667 114.669 C 91.667 114.586,92.635 112.532,94.718 108.201 C 95.331 106.925,95.833 105.821,95.833 105.748 C 95.833 105.674,96.264 104.703,96.791 103.588 C 97.318 102.474,98.446 100.063,99.297 98.229 C 100.148 96.396,101.071 94.427,101.349 93.854 C 101.626 93.281,102.079 92.297,102.357 91.667 C 102.863 90.518,104.133 87.802,105.620 84.688 C 106.578 82.681,107.698 80.273,108.334 78.854 C 108.845 77.714,109.943 75.353,111.095 72.917 C 111.501 72.057,112.741 69.385,113.850 66.979 C 114.960 64.573,116.242 61.821,116.701 60.863 C 118.124 57.888,118.593 58.257,106.250 52.668 C 105.734 52.435,104.563 51.890,103.646 51.458 C 100.702 50.071,100.031 49.792,99.641 49.792 C 98.967 49.792,98.323 50.427,97.773 51.635 C 97.479 52.283,96.734 53.871,96.119 55.164 C 95.503 56.457,95.000 57.552,95.000 57.597 C 95.000 57.670,93.752 60.337,91.877 64.271 C 91.549 64.958,91.028 66.083,90.720 66.771 C 90.411 67.458,89.851 68.677,89.477 69.479 C 89.102 70.281,88.492 71.594,88.121 72.396 C 87.749 73.198,86.989 74.787,86.431 75.928 C 85.873 77.068,85.417 78.069,85.417 78.151 C 85.417 78.234,84.844 79.504,84.145 80.974 C 82.163 85.135,81.536 86.472,80.986 87.708 C 80.423 88.972,79.447 91.097,78.545 93.021 C 78.223 93.708,77.654 94.927,77.280 95.729 C 76.178 98.096,74.671 101.314,74.277 102.144 C 73.620 103.529,73.500 103.338,69.323 94.271 C 67.297 89.872,67.081 89.411,65.541 86.187 C 64.785 84.605,64.167 83.276,64.167 83.233 C 64.167 83.191,63.619 82.001,62.949 80.589 C 62.279 79.176,61.586 77.693,61.407 77.292 C 61.229 76.891,60.690 75.719,60.209 74.688 C 59.728 73.656,59.052 72.203,58.708 71.458 C 58.364 70.714,57.670 69.249,57.166 68.204 C 56.662 67.159,56.250 66.244,56.250 66.170 C 56.250 66.097,55.688 64.899,55.000 63.508 C 54.313 62.116,53.750 60.859,53.750 60.712 C 53.750 60.566,53.629 60.323,53.481 60.171 C 53.333 60.020,53.082 59.568,52.923 59.167 C 52.765 58.766,52.104 57.313,51.454 55.938 C 50.805 54.563,50.150 53.109,49.998 52.708 C 49.847 52.307,49.611 51.839,49.474 51.667 C 49.337 51.495,49.056 50.964,48.851 50.488 C 48.298 49.202,47.428 48.901,46.042 49.517 M149.271 49.928 C 134.014 51.744,124.500 57.838,118.417 69.691 C 112.403 81.410,112.258 102.816,118.112 114.746 C 118.577 115.695,118.958 116.512,118.958 116.562 C 118.958 116.780,120.996 120.012,121.861 121.165 C 128.794 130.413,138.904 134.892,152.813 134.878 C 169.471 134.861,181.321 128.155,187.676 115.147 C 194.537 101.102,193.724 78.731,185.892 66.047 C 178.848 54.641,164.125 48.161,149.271 49.928 M195.208 92.394 L 195.208 133.333 221.771 133.333 L 248.333 133.333 248.333 124.896 L 248.333 116.458 231.876 116.458 L 215.418 116.458 215.365 84.010 L 215.313 51.563 205.260 51.508 L 195.208 51.454 195.208 92.394 M233.542 59.895 L 233.542 68.333 245.313 68.333 L 257.083 68.333 257.083 100.833 L 257.083 133.333 267.188 133.333 L 277.292 133.333 277.292 100.835 L 277.292 68.337 289.010 68.283 L 300.729 68.229 300.729 59.896 L 300.729 51.563 267.135 51.510 L 233.542 51.457 233.542 59.895 M315.516 51.717 C 315.462 51.861,314.659 54.229,313.731 56.979 C 312.803 59.729,311.200 64.464,310.169 67.500 C 309.138 70.536,307.468 75.458,306.457 78.438 C 305.446 81.417,302.931 88.823,300.869 94.896 C 298.806 100.969,295.574 110.484,293.687 116.042 C 291.800 121.599,289.729 127.683,289.086 129.561 C 288.443 131.439,287.917 133.056,287.917 133.155 C 287.917 133.253,292.833 133.333,298.841 133.333 L 309.765 133.333 310.257 131.719 C 310.528 130.831,311.542 127.409,312.510 124.115 L 314.271 118.126 330.096 118.177 L 345.921 118.229 348.119 125.729 L 350.317 133.229 361.327 133.283 C 370.108 133.326,372.318 133.284,372.240 133.075 C 372.086 132.664,370.374 127.621,367.767 119.896 C 366.452 116.000,364.266 109.531,362.911 105.521 C 361.555 101.510,359.369 95.042,358.052 91.146 C 351.099 70.569,346.604 57.281,345.685 54.583 L 344.657 51.563 330.135 51.509 C 318.627 51.467,315.593 51.510,315.516 51.717 M43.711 52.344 C 43.801 52.819,42.875 52.845,42.411 52.381 C 41.935 51.905,41.996 51.843,42.863 51.915 C 43.408 51.960,43.663 52.089,43.711 52.344 M103.287 52.050 C 103.480 52.173,103.405 52.287,103.017 52.464 C 102.313 52.785,102.083 52.772,102.083 52.413 C 102.083 51.957,102.799 51.741,103.287 52.050 M98.296 53.089 C 98.340 53.390,98.252 53.542,98.035 53.542 C 97.823 53.542,97.708 53.354,97.708 53.003 C 97.708 52.351,98.198 52.422,98.296 53.089 M107.568 53.834 C 107.629 53.994,107.624 54.181,107.557 54.249 C 107.410 54.396,106.875 53.984,106.875 53.724 C 106.875 53.426,107.446 53.517,107.568 53.834 M38.637 53.944 C 38.808 54.221,38.376 54.436,37.965 54.278 C 37.664 54.163,37.659 54.117,37.923 53.950 C 38.313 53.703,38.487 53.702,38.637 53.944 M42.292 53.958 C 42.292 54.223,41.659 54.223,41.250 53.958 C 41.013 53.805,41.101 53.756,41.615 53.753 C 41.987 53.751,42.292 53.844,42.292 53.958 M103.958 53.958 C 103.958 54.073,103.765 54.167,103.529 54.167 C 103.293 54.167,103.158 54.073,103.229 53.958 C 103.300 53.844,103.493 53.750,103.658 53.750 C 103.823 53.750,103.958 53.844,103.958 53.958 M99.583 54.479 C 99.583 54.651,99.443 54.792,99.271 54.792 C 99.099 54.792,98.958 54.651,98.958 54.479 C 98.958 54.307,99.099 54.167,99.271 54.167 C 99.443 54.167,99.583 54.307,99.583 54.479 M34.257 56.063 C 34.194 56.166,33.796 56.243,33.373 56.235 C 32.775 56.224,32.697 56.184,33.021 56.056 C 33.250 55.965,33.570 55.941,33.732 56.002 C 33.918 56.072,33.972 56.023,33.878 55.871 C 33.780 55.714,33.840 55.673,34.050 55.753 C 34.228 55.821,34.321 55.961,34.257 56.063 M112.408 55.931 C 112.804 56.230,112.803 56.237,112.361 56.243 C 111.628 56.254,111.160 56.019,111.493 55.808 C 111.870 55.569,111.942 55.578,112.408 55.931 M36.667 56.146 C 36.667 56.318,36.573 56.458,36.458 56.458 C 36.344 56.458,36.250 56.318,36.250 56.146 C 36.250 55.974,36.344 55.833,36.458 55.833 C 36.573 55.833,36.667 55.974,36.667 56.146 M109.536 56.081 C 109.407 56.467,108.958 56.531,108.958 56.163 C 108.958 55.982,109.107 55.833,109.288 55.833 C 109.470 55.833,109.581 55.945,109.536 56.081 M34.673 57.060 C 34.735 57.161,34.554 57.289,34.268 57.343 C 33.736 57.445,33.545 57.201,34.010 57.013 C 34.414 56.850,34.549 56.860,34.673 57.060 M51.107 57.031 C 51.156 57.117,51.021 57.368,50.807 57.589 C 50.422 57.984,50.417 57.984,50.417 57.571 C 50.417 56.975,50.870 56.620,51.107 57.031 M111.667 57.083 C 111.909 57.240,111.848 57.286,111.394 57.288 C 111.056 57.290,110.863 57.204,110.938 57.083 C 111.097 56.825,111.266 56.825,111.667 57.083 M31.754 57.626 C 32.159 57.782,32.192 58.333,31.796 58.333 C 31.443 58.333,30.995 57.825,31.182 57.637 C 31.349 57.470,31.346 57.470,31.754 57.626 M95.387 58.299 C 95.287 58.337,95.259 58.455,95.323 58.559 C 95.388 58.664,95.332 58.750,95.198 58.750 C 95.062 58.750,95.011 58.605,95.082 58.420 C 95.151 58.239,95.215 57.935,95.223 57.743 C 95.235 57.469,95.273 57.484,95.403 57.813 C 95.495 58.042,95.487 58.261,95.387 58.299 M30.625 58.160 C 30.625 58.255,30.531 58.333,30.417 58.333 C 30.302 58.333,30.199 58.544,30.188 58.802 C 30.168 59.249,30.160 59.247,30.012 58.750 C 29.927 58.464,29.885 58.174,29.919 58.108 C 30.016 57.919,30.625 57.964,30.625 58.160 M115.840 60.330 C 116.118 61.060,115.888 61.364,115.396 60.919 C 114.821 60.399,114.885 60.007,115.578 59.808 C 115.610 59.799,115.727 60.034,115.840 60.330 M53.542 61.170 C 53.542 61.342,53.448 61.425,53.333 61.354 C 53.219 61.283,53.125 61.085,53.125 60.913 C 53.125 60.741,53.219 60.658,53.333 60.729 C 53.448 60.800,53.542 60.999,53.542 61.170 M96.250 61.458 C 96.250 61.688,96.156 61.875,96.042 61.875 C 95.927 61.875,95.833 61.688,95.833 61.458 C 95.833 61.229,95.927 61.042,96.042 61.042 C 96.156 61.042,96.250 61.229,96.250 61.458 M114.042 61.945 C 114.135 62.332,114.109 62.489,113.967 62.401 C 113.848 62.327,113.750 62.023,113.750 61.724 C 113.750 61.071,113.850 61.146,114.042 61.945 M94.190 62.768 C 94.020 62.938,93.958 62.915,93.958 62.681 C 93.958 62.266,94.238 61.986,94.342 62.297 C 94.386 62.429,94.318 62.641,94.190 62.768 M34.281 65.164 C 34.220 65.224,34.274 65.399,34.400 65.551 C 34.995 66.267,34.364 66.539,33.726 65.841 C 33.287 65.360,33.169 65.102,33.341 64.995 C 33.609 64.830,34.462 64.982,34.281 65.164 M157.179 66.769 C 166.264 68.718,171.303 77.499,171.612 91.920 C 171.973 108.740,166.601 117.691,155.383 118.962 C 141.920 120.487,133.845 109.520,134.440 90.521 C 134.902 75.788,139.882 68.452,150.833 66.377 C 151.746 66.203,155.677 66.446,157.179 66.769 M112.083 67.083 C 112.083 67.198,111.943 67.292,111.771 67.292 C 111.599 67.292,111.458 67.198,111.458 67.083 C 111.458 66.969,111.599 66.875,111.771 66.875 C 111.943 66.875,112.083 66.969,112.083 67.083 M331.042 67.344 C 331.042 67.372,333.473 75.691,336.444 85.830 C 339.415 95.969,341.821 104.290,341.789 104.322 C 341.758 104.353,336.480 104.354,330.059 104.325 L 318.386 104.271 323.782 86.042 C 326.751 76.016,329.220 67.695,329.271 67.552 C 329.344 67.343,331.041 67.143,331.042 67.344 M35.208 68.690 C 35.208 69.211,35.182 69.229,34.871 68.919 C 34.686 68.733,34.598 68.479,34.675 68.353 C 34.931 67.940,35.208 68.115,35.208 68.690 M91.017 69.146 C 90.654 70.189,89.992 70.640,90.102 69.770 C 90.181 69.140,90.654 68.542,91.071 68.542 C 91.157 68.542,91.133 68.814,91.017 69.146 M110.833 69.283 C 110.833 69.585,110.743 69.761,110.625 69.688 C 110.510 69.617,110.417 69.377,110.417 69.154 C 110.417 68.932,110.510 68.750,110.625 68.750 C 110.740 68.750,110.833 68.990,110.833 69.283 M35.926 69.772 C 35.990 69.876,35.954 70.181,35.847 70.450 C 35.629 70.993,35.606 70.974,35.510 70.156 C 35.444 69.604,35.684 69.382,35.926 69.772 M111.875 70.042 C 111.875 70.378,111.813 70.438,111.643 70.268 C 111.516 70.141,111.474 69.934,111.551 69.810 C 111.767 69.461,111.875 69.539,111.875 70.042 M109.644 73.820 C 109.584 73.918,109.393 73.858,109.222 73.686 C 109.050 73.514,108.976 73.265,109.058 73.133 C 109.162 72.964,109.289 73.005,109.481 73.266 C 109.631 73.473,109.705 73.722,109.644 73.820 M39.583 77.108 C 39.583 77.337,39.490 77.467,39.375 77.396 C 39.260 77.325,39.167 77.080,39.167 76.850 C 39.167 76.621,39.260 76.492,39.375 76.563 C 39.490 76.633,39.583 76.879,39.583 77.108 M108.542 76.963 C 108.542 77.078,107.286 78.333,107.171 78.333 C 106.971 78.333,107.103 77.461,107.344 77.187 C 107.576 76.922,108.542 76.742,108.542 76.963 M105.962 79.721 L 105.642 80.313 105.633 79.757 C 105.629 79.451,105.742 79.160,105.885 79.108 C 106.292 78.963,106.307 79.084,105.962 79.721 M107.708 79.323 C 107.708 79.485,107.597 79.581,107.461 79.536 C 107.083 79.410,107.030 79.028,107.390 79.028 C 107.565 79.028,107.708 79.161,107.708 79.323 M61.964 83.036 C 62.144 83.216,62.292 83.538,62.292 83.753 C 62.292 83.967,62.385 84.200,62.500 84.271 C 62.798 84.455,62.757 84.792,62.437 84.792 C 62.288 84.792,61.968 84.323,61.726 83.750 C 61.281 82.696,61.367 82.438,61.964 83.036 M63.861 84.333 C 63.689 84.506,63.333 84.128,63.333 83.772 C 63.333 83.136,63.630 83.073,63.791 83.675 C 63.875 83.991,63.907 84.287,63.861 84.333 M64.798 85.417 C 65.045 85.893,65.039 85.913,64.722 85.652 C 64.531 85.494,64.375 85.221,64.375 85.044 C 64.375 84.666,64.435 84.718,64.798 85.417 M63.646 86.632 C 63.646 87.009,63.238 86.940,63.157 86.550 C 63.112 86.332,63.190 86.237,63.366 86.295 C 63.520 86.347,63.646 86.498,63.646 86.632 M66.458 89.037 C 66.458 89.390,65.950 89.839,65.762 89.651 C 65.453 89.342,65.636 88.750,66.042 88.750 C 66.271 88.750,66.458 88.879,66.458 89.037 M101.458 89.596 C 101.458 89.818,101.375 90.000,101.272 90.000 C 101.028 90.000,100.799 89.391,100.951 89.144 C 101.133 88.850,101.458 89.140,101.458 89.596 M103.125 89.167 C 103.125 89.281,102.984 89.375,102.813 89.375 C 102.641 89.375,102.500 89.281,102.500 89.167 C 102.500 89.052,102.641 88.958,102.813 88.958 C 102.984 88.958,103.125 89.052,103.125 89.167 M68.173 92.870 C 68.240 93.125,68.213 93.333,68.113 93.333 C 67.828 93.333,67.500 92.586,67.501 91.941 L 67.503 91.354 67.777 91.881 C 67.928 92.170,68.107 92.616,68.173 92.870 M46.551 92.130 C 47.042 92.832,46.988 93.408,46.456 93.124 C 46.137 92.953,46.067 92.766,46.161 92.335 C 46.256 91.899,46.233 91.842,46.062 92.083 C 45.870 92.353,45.839 92.346,45.837 92.031 C 45.832 91.529,46.162 91.575,46.551 92.130 M67.500 94.688 C 67.500 94.859,67.359 95.000,67.188 95.000 C 67.016 95.000,66.875 94.859,66.875 94.688 C 66.875 94.516,67.016 94.375,67.188 94.375 C 67.359 94.375,67.500 94.516,67.500 94.688 M80.313 94.965 C 80.313 95.609,79.909 95.538,79.828 94.880 C 79.780 94.495,79.843 94.357,80.036 94.422 C 80.188 94.472,80.313 94.717,80.313 94.965 M79.222 97.311 C 79.116 97.716,79.103 97.714,78.860 97.251 C 78.562 96.681,78.675 96.345,79.060 96.664 C 79.209 96.789,79.283 97.079,79.222 97.311 M77.388 97.135 C 77.220 97.693,76.667 98.335,76.667 97.971 C 76.667 97.575,77.135 96.667,77.339 96.667 C 77.443 96.667,77.465 96.878,77.388 97.135 M51.976 100.104 L 52.107 100.729 51.790 100.208 C 51.438 99.629,51.338 98.960,51.652 99.281 C 51.758 99.390,51.904 99.760,51.976 100.104 M70.208 99.351 C 70.208 99.453,70.078 99.788,69.918 100.096 C 69.565 100.775,69.290 100.460,69.577 99.705 C 69.770 99.197,70.208 98.951,70.208 99.351 M50.494 100.805 C 50.394 100.878,50.313 101.070,50.313 101.233 C 50.313 101.395,50.180 101.572,50.019 101.626 C 49.814 101.694,49.766 101.617,49.860 101.372 C 49.940 101.164,49.911 101.072,49.789 101.147 C 49.676 101.217,49.583 101.175,49.583 101.054 C 49.583 100.933,49.714 100.833,49.874 100.833 C 50.033 100.833,50.232 100.669,50.314 100.469 C 50.429 100.192,50.491 100.173,50.570 100.389 C 50.628 100.545,50.594 100.733,50.494 100.805 M70.833 101.170 C 70.833 101.342,70.921 101.429,71.027 101.363 C 71.134 101.297,71.287 101.349,71.366 101.478 C 71.446 101.607,71.386 101.791,71.232 101.886 C 71.034 102.008,70.874 101.873,70.684 101.422 C 70.362 100.656,70.354 100.562,70.625 100.729 C 70.740 100.800,70.833 100.999,70.833 101.170 M51.175 103.229 C 51.109 103.401,51.137 103.542,51.237 103.542 C 51.337 103.542,51.366 103.746,51.301 103.995 L 51.182 104.448 51.014 103.995 C 50.856 103.567,50.962 102.917,51.190 102.917 C 51.248 102.917,51.241 103.057,51.175 103.229 M84.077 103.148 C 84.156 103.276,84.091 103.462,83.933 103.562 C 83.510 103.830,83.425 103.794,83.391 103.333 C 83.357 102.889,83.837 102.760,84.077 103.148 M96.042 103.542 C 96.042 103.885,95.948 104.167,95.833 104.167 C 95.602 104.167,95.546 103.274,95.764 103.056 C 95.999 102.820,96.042 102.894,96.042 103.542 M94.375 103.972 C 94.375 104.180,94.281 104.408,94.167 104.479 C 94.052 104.550,93.958 104.423,93.958 104.196 C 93.958 103.969,93.894 103.612,93.815 103.402 C 93.689 103.067,93.714 103.055,94.023 103.307 C 94.217 103.464,94.375 103.763,94.375 103.972 M78.042 104.131 C 77.673 104.500,77.389 104.341,77.571 103.867 C 77.644 103.676,77.827 103.600,78.029 103.678 C 78.333 103.795,78.335 103.838,78.042 104.131 M77.382 106.020 C 77.446 106.122,77.358 106.260,77.186 106.326 C 76.997 106.398,76.875 106.325,76.875 106.139 C 76.875 105.802,77.201 105.726,77.382 106.020 M64.792 107.813 C 64.792 107.984,64.651 108.125,64.479 108.125 C 64.154 108.125,64.066 107.879,64.306 107.639 C 64.545 107.399,64.792 107.487,64.792 107.813 M54.755 108.402 C 54.827 108.773,54.343 109.375,53.973 109.375 C 53.695 109.375,53.691 109.139,53.960 108.434 C 54.183 107.846,54.643 107.828,54.755 108.402 M84.344 109.167 C 84.105 109.852,83.542 110.021,83.542 109.407 C 83.542 109.104,83.947 108.752,84.520 108.556 C 84.543 108.548,84.464 108.823,84.344 109.167 M56.115 110.160 C 56.048 110.416,55.900 110.625,55.787 110.625 C 55.673 110.625,55.637 110.477,55.707 110.295 C 55.776 110.114,55.833 109.814,55.833 109.629 C 55.833 109.412,55.905 109.363,56.035 109.493 C 56.146 109.604,56.182 109.904,56.115 110.160 M82.292 109.688 C 82.511 109.952,82.467 110.000,82.005 110.000 C 81.658 110.000,81.458 109.886,81.458 109.688 C 81.458 109.516,81.587 109.375,81.745 109.375 C 81.903 109.375,82.149 109.516,82.292 109.688 M61.138 110.746 C 61.150 111.040,61.087 111.326,60.997 111.382 C 60.907 111.437,60.833 111.134,60.833 110.707 C 60.833 109.854,61.100 109.888,61.138 110.746 M82.517 110.625 C 82.622 110.625,82.708 110.719,82.708 110.833 C 82.708 110.948,82.474 111.042,82.188 111.042 C 81.848 111.042,81.667 110.925,81.667 110.707 C 81.667 110.487,81.780 110.416,81.996 110.499 C 82.177 110.568,82.412 110.625,82.517 110.625 M62.823 111.686 C 63.209 112.433,63.170 112.527,62.543 112.363 C 62.076 112.241,61.982 111.964,62.210 111.371 C 62.384 110.918,62.441 110.948,62.823 111.686 M91.875 111.458 C 91.752 111.688,91.608 111.875,91.555 111.875 C 91.502 111.875,91.458 111.688,91.458 111.458 C 91.458 111.223,91.597 111.042,91.778 111.042 C 92.033 111.042,92.053 111.126,91.875 111.458 M77.708 112.507 C 77.708 112.756,77.121 113.023,76.949 112.852 C 76.767 112.670,77.076 112.292,77.408 112.292 C 77.573 112.292,77.708 112.388,77.708 112.507 M90.000 112.604 C 90.000 112.776,89.906 112.917,89.792 112.917 C 89.677 112.917,89.583 112.776,89.583 112.604 C 89.583 112.432,89.677 112.292,89.792 112.292 C 89.906 112.292,90.000 112.432,90.000 112.604 M79.583 113.970 C 79.583 114.261,79.204 114.395,79.056 114.156 C 78.979 114.032,78.785 113.980,78.625 114.042 C 78.464 114.103,78.333 114.071,78.333 113.969 C 78.333 113.868,78.451 113.745,78.594 113.697 C 78.943 113.580,79.583 113.756,79.583 113.970 M91.243 114.740 C 91.235 114.944,90.716 115.625,90.570 115.625 C 90.507 115.625,90.564 115.391,90.697 115.106 C 90.923 114.618,91.258 114.394,91.243 114.740 M58.429 115.194 C 58.583 115.443,58.191 115.690,57.913 115.519 C 57.680 115.375,57.833 115.000,58.125 115.000 C 58.226 115.000,58.363 115.087,58.429 115.194 M82.292 115.208 C 82.292 115.323,82.151 115.417,81.979 115.417 C 81.807 115.417,81.667 115.323,81.667 115.208 C 81.667 115.094,81.807 115.000,81.979 115.000 C 82.151 115.000,82.292 115.094,82.292 115.208 M83.415 116.372 C 83.493 116.574,83.447 116.670,83.294 116.619 C 82.983 116.515,82.812 116.042,83.085 116.042 C 83.197 116.042,83.346 116.190,83.415 116.372 M64.792 116.875 C 64.792 116.990,64.604 117.083,64.375 117.083 C 64.146 117.083,63.958 116.990,63.958 116.875 C 63.958 116.760,64.146 116.667,64.375 116.667 C 64.604 116.667,64.792 116.760,64.792 116.875 M66.979 117.083 C 67.050 117.198,66.915 117.292,66.679 117.292 C 66.443 117.292,66.250 117.198,66.250 117.083 C 66.250 116.969,66.385 116.875,66.550 116.875 C 66.715 116.875,66.908 116.969,66.979 117.083 M58.180 117.942 C 58.287 118.013,58.333 118.247,58.282 118.462 C 58.204 118.798,58.158 118.775,57.962 118.301 C 57.837 117.998,57.633 117.686,57.509 117.610 C 57.386 117.534,57.346 117.372,57.421 117.251 C 57.505 117.115,57.640 117.181,57.771 117.421 C 57.889 117.636,58.073 117.871,58.180 117.942 M59.375 117.616 C 59.375 117.919,59.285 118.094,59.167 118.021 C 59.052 117.950,58.958 117.710,58.958 117.488 C 58.958 117.265,59.052 117.083,59.167 117.083 C 59.281 117.083,59.375 117.323,59.375 117.616 M84.279 117.306 C 84.524 117.701,84.167 117.798,83.805 117.436 C 83.480 117.111,83.479 117.083,83.797 117.083 C 83.987 117.083,84.204 117.183,84.279 117.306 M84.152 119.648 C 84.160 119.740,84.073 119.758,83.958 119.688 C 83.844 119.617,83.757 119.353,83.765 119.102 C 83.779 118.648,84.105 119.107,84.152 119.648 M88.445 120.232 C 88.534 120.512,88.464 120.792,88.251 121.005 C 87.944 121.312,87.917 121.275,87.917 120.565 C 87.917 119.722,88.222 119.529,88.445 120.232 M81.000 124.626 C 81.034 124.804,80.878 124.994,80.647 125.055 C 80.094 125.199,79.972 125.039,80.271 124.560 C 80.550 124.114,80.907 124.146,81.000 124.626 M77.292 126.849 C 77.292 126.949,77.059 127.031,76.775 127.031 C 76.490 127.031,76.308 126.949,76.370 126.849 C 76.432 126.749,76.665 126.667,76.887 126.667 C 77.110 126.667,77.292 126.749,77.292 126.849 M79.792 126.875 C 79.792 126.990,79.651 127.083,79.479 127.083 C 79.307 127.083,79.167 126.990,79.167 126.875 C 79.167 126.760,79.307 126.667,79.479 126.667 C 79.651 126.667,79.792 126.760,79.792 126.875 M83.958 127.292 C 83.958 127.406,83.818 127.500,83.646 127.500 C 83.474 127.500,83.333 127.406,83.333 127.292 C 83.333 127.177,83.474 127.083,83.646 127.083 C 83.818 127.083,83.958 127.177,83.958 127.292 M71.250 128.141 C 71.013 128.306,71.089 128.330,71.563 128.242 C 71.906 128.178,72.328 128.227,72.500 128.352 C 72.754 128.535,72.727 128.559,72.357 128.479 C 72.085 128.419,71.857 128.496,71.791 128.669 C 71.678 128.963,71.011 129.066,70.771 128.827 C 70.582 128.637,71.010 127.916,71.309 127.920 C 71.471 127.922,71.450 128.002,71.250 128.141 M84.500 129.291 C 84.432 129.468,84.271 129.543,84.136 129.460 C 83.995 129.373,83.950 129.401,84.028 129.527 C 84.202 129.810,83.762 131.073,83.537 130.935 C 83.226 130.743,83.520 129.529,84.001 129.018 C 84.465 128.523,84.738 128.672,84.500 129.291 M69.792 129.063 C 69.792 129.234,69.698 129.375,69.583 129.375 C 69.469 129.375,69.375 129.276,69.375 129.154 C 69.375 129.033,69.281 128.992,69.167 129.063 C 69.052 129.133,68.958 129.092,68.958 128.971 C 68.958 128.849,69.146 128.750,69.375 128.750 C 69.606 128.750,69.792 128.889,69.792 129.063 M66.526 130.307 C 66.467 130.636,66.157 130.651,65.740 130.346 C 65.379 130.082,65.394 130.063,65.956 130.083 C 66.290 130.095,66.546 130.196,66.526 130.307 M64.782 132.292 C 64.779 132.532,64.709 132.513,64.479 132.209 C 64.315 131.991,64.236 131.724,64.304 131.614 C 64.452 131.373,64.787 131.847,64.782 132.292 M81.458 131.875 C 81.458 131.990,81.318 132.083,81.146 132.083 C 80.974 132.083,80.833 131.990,80.833 131.875 C 80.833 131.760,80.974 131.667,81.146 131.667 C 81.318 131.667,81.458 131.760,81.458 131.875 " stroke="none" fill="#04249c" fill-rule="evenodd"></path><path id="path2" d="M48.125 49.225 C 48.297 49.375,48.555 49.630,48.698 49.791 C 48.920 50.040,48.958 50.036,48.958 49.763 C 48.958 49.586,48.701 49.332,48.385 49.197 C 47.909 48.993,47.865 48.997,48.125 49.225 M45.423 49.367 C 45.254 49.473,45.167 49.612,45.230 49.674 C 45.292 49.736,45.524 49.651,45.744 49.484 C 46.184 49.151,45.917 49.054,45.423 49.367 M42.714 50.617 C 42.546 50.723,42.459 50.862,42.521 50.924 C 42.584 50.986,42.815 50.901,43.036 50.734 C 43.475 50.401,43.208 50.304,42.714 50.617 M104.583 51.575 C 104.583 51.620,104.865 51.801,105.208 51.979 C 105.552 52.157,105.833 52.227,105.833 52.134 C 105.833 52.042,105.552 51.860,105.208 51.730 C 104.865 51.601,104.583 51.531,104.583 51.575 M50.134 52.702 C 50.334 53.042,50.531 53.289,50.570 53.250 C 50.696 53.124,50.147 52.083,49.955 52.083 C 49.852 52.083,49.933 52.362,50.134 52.702 M37.656 52.979 C 37.341 53.104,37.083 53.276,37.083 53.363 C 37.083 53.562,38.294 53.148,38.450 52.896 C 38.593 52.665,38.399 52.685,37.656 52.979 M108.006 53.234 C 108.226 53.401,108.458 53.486,108.520 53.424 C 108.651 53.293,108.122 52.921,107.813 52.926 C 107.698 52.928,107.785 53.067,108.006 53.234 M34.740 54.310 C 34.539 54.363,34.375 54.484,34.375 54.579 C 34.375 54.675,34.563 54.704,34.792 54.644 C 35.021 54.584,35.208 54.452,35.208 54.351 C 35.208 54.249,35.185 54.178,35.156 54.191 C 35.128 54.204,34.940 54.258,34.740 54.310 M110.714 54.484 C 110.935 54.651,111.166 54.736,111.229 54.674 C 111.360 54.543,110.830 54.171,110.521 54.176 C 110.406 54.178,110.493 54.317,110.714 54.484 M51.260 55.226 C 51.387 55.465,51.534 55.619,51.584 55.568 C 51.730 55.423,51.434 54.792,51.220 54.792 C 51.114 54.792,51.132 54.987,51.260 55.226 M32.031 55.560 C 31.831 55.613,31.667 55.734,31.667 55.829 C 31.667 55.925,31.854 55.954,32.083 55.894 C 32.313 55.834,32.500 55.702,32.500 55.601 C 32.500 55.499,32.477 55.428,32.448 55.441 C 32.419 55.454,32.232 55.508,32.031 55.560 M94.940 56.667 C 94.880 56.896,94.905 57.083,94.995 57.083 C 95.086 57.083,95.209 56.896,95.269 56.667 C 95.329 56.438,95.304 56.250,95.213 56.250 C 95.123 56.250,95.000 56.438,94.940 56.667 M115.506 56.775 C 115.726 56.942,115.958 57.028,116.020 56.966 C 116.151 56.835,115.622 56.463,115.313 56.468 C 115.198 56.470,115.285 56.608,115.506 56.775 M117.467 59.133 C 117.422 59.610,117.447 60.000,117.522 60.000 C 117.744 60.000,117.894 58.881,117.715 58.560 C 117.608 58.369,117.521 58.569,117.467 59.133 M93.694 59.323 C 93.636 59.523,93.515 59.867,93.426 60.086 C 93.317 60.351,93.338 60.439,93.486 60.347 C 93.775 60.168,94.199 58.958,93.972 58.958 C 93.877 58.958,93.751 59.122,93.694 59.323 M53.624 60.330 C 53.693 60.511,53.750 60.698,53.750 60.746 C 53.750 60.794,53.835 60.833,53.939 60.833 C 54.043 60.833,54.079 60.646,54.019 60.417 C 53.959 60.188,53.817 60.000,53.703 60.000 C 53.590 60.000,53.554 60.148,53.624 60.330 M116.190 62.292 C 116.130 62.521,116.155 62.708,116.245 62.708 C 116.336 62.708,116.459 62.521,116.519 62.292 C 116.579 62.063,116.554 61.875,116.463 61.875 C 116.373 61.875,116.250 62.063,116.190 62.292 M92.292 62.500 C 92.159 62.749,92.096 62.999,92.154 63.057 C 92.211 63.114,92.367 62.957,92.500 62.708 C 92.633 62.460,92.695 62.209,92.638 62.152 C 92.581 62.095,92.425 62.251,92.292 62.500 M30.930 62.604 C 31.018 62.833,31.136 63.185,31.194 63.385 C 31.251 63.586,31.379 63.750,31.478 63.750 C 31.577 63.750,31.548 63.492,31.414 63.177 C 31.122 62.489,30.694 61.982,30.930 62.604 M54.940 63.125 C 55.000 63.354,55.123 63.542,55.213 63.542 C 55.304 63.542,55.329 63.354,55.269 63.125 C 55.209 62.896,55.086 62.708,54.995 62.708 C 54.905 62.708,54.880 62.896,54.940 63.125 M91.398 64.167 C 91.338 64.396,91.374 64.583,91.478 64.583 C 91.582 64.583,91.667 64.544,91.667 64.496 C 91.667 64.448,91.724 64.261,91.793 64.080 C 91.863 63.898,91.827 63.750,91.713 63.750 C 91.600 63.750,91.458 63.938,91.398 64.167 M114.940 65.000 C 114.880 65.229,114.905 65.417,114.995 65.417 C 115.086 65.417,115.209 65.229,115.269 65.000 C 115.329 64.771,115.304 64.583,115.213 64.583 C 115.123 64.583,115.000 64.771,114.940 65.000 M55.915 65.121 C 55.985 65.302,56.042 65.490,56.042 65.538 C 56.042 65.586,56.127 65.625,56.230 65.625 C 56.334 65.625,56.370 65.438,56.310 65.208 C 56.250 64.979,56.109 64.792,55.995 64.792 C 55.882 64.792,55.846 64.940,55.915 65.121 M32.440 66.042 C 32.500 66.271,32.623 66.458,32.713 66.458 C 32.804 66.458,32.829 66.271,32.769 66.042 C 32.709 65.813,32.586 65.625,32.495 65.625 C 32.405 65.625,32.380 65.813,32.440 66.042 M113.966 67.070 C 113.702 67.563,113.689 67.770,113.933 67.620 C 114.117 67.506,114.404 66.667,114.259 66.667 C 114.216 66.667,114.084 66.848,113.966 67.070 M89.913 67.426 C 89.715 67.943,89.934 68.014,90.199 67.518 C 90.327 67.279,90.344 67.083,90.238 67.083 C 90.132 67.083,89.985 67.237,89.913 67.426 M57.093 67.604 C 57.088 67.914,57.460 68.443,57.591 68.312 C 57.653 68.250,57.567 68.018,57.400 67.797 C 57.233 67.576,57.095 67.490,57.093 67.604 M33.690 68.750 C 33.750 68.979,33.873 69.167,33.963 69.167 C 34.054 69.167,34.079 68.979,34.019 68.750 C 33.959 68.521,33.836 68.333,33.745 68.333 C 33.655 68.333,33.630 68.521,33.690 68.750 M112.604 70.000 C 112.426 70.344,112.368 70.625,112.474 70.625 C 112.581 70.625,112.766 70.344,112.885 70.000 C 113.005 69.656,113.064 69.375,113.015 69.375 C 112.967 69.375,112.782 69.656,112.604 70.000 M88.690 70.208 C 88.630 70.438,88.655 70.625,88.745 70.625 C 88.836 70.625,88.959 70.438,89.019 70.208 C 89.079 69.979,89.054 69.792,88.963 69.792 C 88.873 69.792,88.750 69.979,88.690 70.208 M58.573 70.834 C 58.693 71.178,58.891 71.521,59.014 71.597 C 59.162 71.689,59.183 71.601,59.074 71.336 C 58.985 71.117,58.864 70.773,58.806 70.573 C 58.749 70.372,58.623 70.208,58.528 70.208 C 58.433 70.208,58.453 70.490,58.573 70.834 M34.815 70.990 C 35.051 71.697,35.208 71.859,35.208 71.394 C 35.208 71.244,35.069 70.939,34.899 70.717 C 34.615 70.347,34.608 70.370,34.815 70.990 M111.283 72.822 C 110.998 73.449,110.988 73.542,111.204 73.542 C 111.294 73.542,111.473 73.260,111.603 72.917 C 111.889 72.157,111.622 72.078,111.283 72.822 M35.981 73.542 C 36.041 73.771,36.164 73.958,36.255 73.958 C 36.345 73.958,36.370 73.771,36.310 73.542 C 36.250 73.313,36.127 73.125,36.037 73.125 C 35.946 73.125,35.921 73.313,35.981 73.542 M86.376 74.913 C 86.209 75.350,86.216 75.417,86.434 75.417 C 86.535 75.417,86.667 75.229,86.727 75.000 C 86.856 74.508,86.560 74.435,86.376 74.913 M109.918 75.746 C 109.750 76.184,109.758 76.250,109.976 76.250 C 110.077 76.250,110.209 76.063,110.269 75.833 C 110.397 75.341,110.102 75.268,109.918 75.746 M60.981 76.042 C 61.041 76.271,61.164 76.458,61.255 76.458 C 61.345 76.458,61.370 76.271,61.310 76.042 C 61.250 75.813,61.127 75.625,61.037 75.625 C 60.946 75.625,60.921 75.813,60.981 76.042 M37.439 76.873 C 37.499 77.101,37.626 77.238,37.723 77.178 C 37.928 77.052,37.742 76.458,37.497 76.458 C 37.406 76.458,37.379 76.645,37.439 76.873 M85.218 77.690 C 85.090 77.930,85.072 78.125,85.179 78.125 C 85.393 78.125,85.688 77.494,85.543 77.348 C 85.492 77.297,85.346 77.452,85.218 77.690 M62.231 78.750 C 62.291 78.979,62.414 79.167,62.505 79.167 C 62.595 79.167,62.620 78.979,62.560 78.750 C 62.500 78.521,62.377 78.333,62.287 78.333 C 62.196 78.333,62.171 78.521,62.231 78.750 M83.902 80.365 C 83.844 80.565,83.724 80.909,83.634 81.128 C 83.526 81.392,83.546 81.480,83.694 81.389 C 83.983 81.210,84.407 80.000,84.180 80.000 C 84.085 80.000,83.960 80.164,83.902 80.365 M107.648 80.625 C 107.588 80.854,107.613 81.042,107.704 81.042 C 107.794 81.042,107.917 80.854,107.977 80.625 C 108.037 80.396,108.012 80.208,107.921 80.208 C 107.831 80.208,107.708 80.396,107.648 80.625 M63.480 81.452 C 63.538 81.677,63.712 81.965,63.864 82.092 C 64.094 82.282,64.100 82.211,63.900 81.682 C 63.634 80.977,63.309 80.799,63.480 81.452 M39.731 81.667 C 39.791 81.896,39.923 82.083,40.024 82.083 C 40.242 82.083,40.250 82.017,40.082 81.580 C 39.898 81.101,39.603 81.175,39.731 81.667 M106.398 83.333 C 106.338 83.563,106.374 83.750,106.478 83.750 C 106.582 83.750,106.667 83.711,106.667 83.663 C 106.667 83.615,106.724 83.427,106.793 83.246 C 106.863 83.065,106.827 82.917,106.713 82.917 C 106.600 82.917,106.458 83.104,106.398 83.333 M40.717 83.455 C 40.807 83.675,40.928 84.018,40.985 84.219 C 41.043 84.419,41.168 84.583,41.263 84.583 C 41.490 84.583,41.067 83.373,40.777 83.195 C 40.629 83.103,40.609 83.191,40.717 83.455 M64.523 83.542 C 64.583 83.771,64.715 83.958,64.816 83.958 C 65.034 83.958,65.041 83.892,64.874 83.455 C 64.690 82.976,64.394 83.050,64.523 83.542 M82.566 83.490 C 82.494 83.690,82.396 83.948,82.348 84.063 C 82.300 84.177,82.408 84.089,82.589 83.866 C 82.916 83.463,83.015 83.125,82.806 83.125 C 82.745 83.125,82.637 83.289,82.566 83.490 M65.707 86.163 C 65.776 86.344,65.833 86.532,65.833 86.580 C 65.833 86.627,65.939 86.667,66.067 86.667 C 66.239 86.667,66.240 86.593,66.069 86.387 C 65.941 86.233,65.899 86.046,65.974 85.970 C 66.049 85.895,65.992 85.833,65.846 85.833 C 65.689 85.833,65.632 85.969,65.707 86.163 M42.231 86.875 C 42.291 87.104,42.414 87.292,42.505 87.292 C 42.595 87.292,42.620 87.104,42.560 86.875 C 42.500 86.646,42.377 86.458,42.287 86.458 C 42.196 86.458,42.171 86.646,42.231 86.875 M80.148 88.542 C 80.088 88.771,80.113 88.958,80.204 88.958 C 80.294 88.958,80.417 88.771,80.477 88.542 C 80.537 88.313,80.512 88.125,80.421 88.125 C 80.331 88.125,80.208 88.313,80.148 88.542 M103.968 88.524 C 103.840 88.763,103.822 88.958,103.929 88.958 C 104.143 88.958,104.438 88.327,104.293 88.182 C 104.242 88.131,104.096 88.285,103.968 88.524 M43.415 89.496 C 43.485 89.677,43.542 89.865,43.542 89.913 C 43.542 89.961,43.627 90.000,43.730 90.000 C 43.834 90.000,43.870 89.813,43.810 89.583 C 43.750 89.354,43.609 89.167,43.495 89.167 C 43.382 89.167,43.346 89.315,43.415 89.496 M67.301 89.601 C 67.429 89.840,67.575 89.994,67.626 89.943 C 67.772 89.798,67.476 89.167,67.262 89.167 C 67.156 89.167,67.173 89.362,67.301 89.601 M78.898 91.250 C 78.838 91.479,78.863 91.667,78.954 91.667 C 79.044 91.667,79.167 91.479,79.227 91.250 C 79.287 91.021,79.262 90.833,79.171 90.833 C 79.081 90.833,78.958 91.021,78.898 91.250 M102.622 91.384 C 102.423 91.901,102.642 91.972,102.907 91.476 C 103.035 91.237,103.053 91.042,102.946 91.042 C 102.840 91.042,102.694 91.196,102.622 91.384 M44.515 91.618 C 44.580 91.877,44.716 92.141,44.817 92.203 C 45.102 92.379,45.032 91.998,44.698 91.550 C 44.406 91.160,44.400 91.162,44.515 91.618 M77.926 93.315 C 77.798 93.555,77.781 93.750,77.887 93.750 C 78.101 93.750,78.397 93.119,78.251 92.973 C 78.200 92.922,78.054 93.077,77.926 93.315 M101.376 94.080 C 101.209 94.517,101.216 94.583,101.434 94.583 C 101.535 94.583,101.667 94.396,101.727 94.167 C 101.856 93.675,101.560 93.601,101.376 94.080 M69.523 94.375 C 69.583 94.604,69.720 94.792,69.828 94.792 C 69.936 94.792,69.967 94.885,69.896 95.000 C 69.825 95.115,69.866 95.208,69.988 95.208 C 70.266 95.208,70.264 95.141,69.967 94.489 C 69.680 93.860,69.367 93.779,69.523 94.375 M76.606 96.042 C 76.546 96.271,76.582 96.458,76.686 96.458 C 76.790 96.458,76.875 96.419,76.875 96.371 C 76.875 96.323,76.932 96.136,77.001 95.955 C 77.071 95.773,77.035 95.625,76.922 95.625 C 76.808 95.625,76.666 95.813,76.606 96.042 M70.897 97.292 C 71.027 97.635,71.201 97.917,71.285 97.917 C 71.368 97.917,71.339 97.635,71.219 97.292 C 71.099 96.948,70.924 96.667,70.831 96.667 C 70.738 96.667,70.767 96.948,70.897 97.292 M47.231 97.708 C 47.291 97.938,47.423 98.125,47.524 98.125 C 47.742 98.125,47.750 98.059,47.582 97.621 C 47.398 97.143,47.103 97.216,47.231 97.708 M75.253 99.010 C 74.927 99.872,75.092 99.995,75.505 99.198 C 75.685 98.850,75.757 98.519,75.665 98.462 C 75.573 98.406,75.388 98.652,75.253 99.010 M99.022 99.167 C 98.892 99.510,98.863 99.792,98.956 99.792 C 99.049 99.792,99.224 99.510,99.344 99.167 C 99.464 98.823,99.493 98.542,99.410 98.542 C 99.326 98.542,99.152 98.823,99.022 99.167 M48.056 99.118 C 48.122 99.377,48.258 99.641,48.358 99.703 C 48.644 99.879,48.574 99.498,48.240 99.050 C 47.948 98.660,47.942 98.662,48.056 99.118 M97.856 101.667 C 97.796 101.896,97.821 102.083,97.912 102.083 C 98.002 102.083,98.125 101.896,98.185 101.667 C 98.245 101.438,98.220 101.250,98.130 101.250 C 98.039 101.250,97.916 101.438,97.856 101.667 M74.035 101.793 C 73.958 102.010,73.856 102.258,73.810 102.344 C 73.763 102.430,73.814 102.500,73.922 102.500 C 74.130 102.500,74.422 101.645,74.267 101.490 C 74.217 101.440,74.113 101.576,74.035 101.793 M49.523 102.500 C 49.583 102.729,49.715 102.917,49.816 102.917 C 50.034 102.917,50.041 102.850,49.874 102.413 C 49.690 101.935,49.394 102.008,49.523 102.500 M78.963 102.865 C 78.966 102.951,79.151 103.255,79.375 103.542 L 79.782 104.063 79.787 103.594 C 79.790 103.328,79.679 103.148,79.531 103.177 C 79.388 103.206,79.294 103.112,79.323 102.969 C 79.352 102.826,79.281 102.708,79.167 102.708 C 79.052 102.708,78.960 102.779,78.963 102.865 M80.625 103.721 C 80.625 103.815,80.859 103.998,81.146 104.129 C 81.432 104.259,81.667 104.289,81.667 104.196 C 81.667 104.102,81.432 103.918,81.146 103.788 C 80.859 103.657,80.625 103.627,80.625 103.721 M50.773 105.208 C 50.833 105.438,50.965 105.625,51.066 105.625 C 51.284 105.625,51.291 105.559,51.124 105.121 C 50.940 104.643,50.644 104.716,50.773 105.208 M82.854 104.947 C 82.805 105.034,83.198 105.317,83.727 105.578 C 84.613 106.015,84.647 106.019,84.167 105.624 C 83.412 105.004,82.954 104.768,82.854 104.947 M79.740 106.185 C 79.539 106.238,79.375 106.367,79.375 106.474 C 79.375 106.768,79.710 106.704,80.000 106.354 C 80.143 106.182,80.224 106.053,80.182 106.066 C 80.139 106.079,79.940 106.133,79.740 106.185 M95.632 106.445 C 95.368 106.938,95.356 107.145,95.600 106.995 C 95.784 106.881,96.070 106.042,95.925 106.042 C 95.883 106.042,95.751 106.223,95.632 106.445 M71.979 107.284 C 71.735 107.384,72.122 107.409,72.917 107.345 C 73.661 107.285,74.310 107.201,74.358 107.159 C 74.533 107.006,72.382 107.118,71.979 107.284 M68.333 107.708 C 68.333 107.969,68.554 107.969,68.958 107.708 C 69.211 107.545,69.181 107.506,68.802 107.503 C 68.544 107.501,68.333 107.594,68.333 107.708 M94.317 109.352 C 94.126 109.676,94.031 110.003,94.106 110.078 C 94.181 110.154,94.368 109.918,94.521 109.555 C 94.878 108.706,94.765 108.594,94.317 109.352 M78.750 109.375 C 78.497 109.538,78.527 109.578,78.906 109.580 C 79.164 109.582,79.375 109.490,79.375 109.375 C 79.375 109.114,79.154 109.114,78.750 109.375 M77.396 109.572 C 77.167 109.664,76.909 109.699,76.823 109.649 C 76.737 109.599,76.667 109.660,76.667 109.783 C 76.667 110.031,77.679 109.860,78.010 109.556 C 78.255 109.332,77.974 109.339,77.396 109.572 M53.156 110.208 C 53.276 110.552,53.451 110.833,53.544 110.833 C 53.637 110.833,53.608 110.552,53.478 110.208 C 53.348 109.865,53.174 109.583,53.090 109.583 C 53.007 109.583,53.036 109.865,53.156 110.208 M74.911 110.525 C 74.690 110.692,74.550 110.869,74.599 110.917 C 74.647 110.966,74.909 110.826,75.179 110.607 C 75.749 110.145,75.510 110.072,74.911 110.525 M92.835 112.413 C 92.667 112.850,92.675 112.917,92.892 112.917 C 92.994 112.917,93.125 112.729,93.185 112.500 C 93.314 112.008,93.018 111.935,92.835 112.413 M64.375 112.592 C 64.375 112.784,66.128 113.721,66.294 113.618 C 66.390 113.559,66.021 113.284,65.474 113.006 C 64.405 112.464,64.375 112.453,64.375 112.592 M54.385 112.813 C 54.380 113.122,54.752 113.651,54.882 113.520 C 54.945 113.458,54.859 113.226,54.692 113.006 C 54.525 112.785,54.387 112.698,54.385 112.813 M55.707 115.729 C 55.833 116.130,56.016 116.458,56.115 116.458 C 56.214 116.458,56.227 116.294,56.144 116.094 C 56.062 115.893,55.947 115.565,55.890 115.365 C 55.832 115.164,55.716 115.000,55.632 115.000 C 55.548 115.000,55.582 115.328,55.707 115.729 M81.250 116.042 C 81.250 116.156,81.395 116.250,81.572 116.250 C 81.749 116.250,82.134 116.490,82.427 116.783 C 82.721 117.077,83.001 117.277,83.050 117.228 C 83.169 117.109,81.707 115.833,81.451 115.833 C 81.340 115.833,81.250 115.927,81.250 116.042 M90.521 117.500 C 90.343 117.844,90.285 118.125,90.391 118.125 C 90.497 118.125,90.682 117.844,90.802 117.500 C 90.922 117.156,90.980 116.875,90.932 116.875 C 90.884 116.875,90.699 117.156,90.521 117.500 M67.865 117.241 C 67.664 117.286,67.500 117.409,67.500 117.515 C 67.500 117.759,67.726 117.757,68.119 117.508 C 68.493 117.271,68.359 117.131,67.865 117.241 M82.969 119.096 C 82.826 119.154,82.708 119.307,82.708 119.436 C 82.708 119.565,82.357 120.049,81.927 120.512 L 81.146 121.354 82.048 120.521 C 82.787 119.838,83.534 118.907,83.289 118.975 C 83.256 118.984,83.112 119.039,82.969 119.096 M57.708 119.792 C 57.708 119.906,57.849 120.000,58.021 120.000 C 58.193 120.000,58.333 119.906,58.333 119.792 C 58.333 119.677,58.193 119.583,58.021 119.583 C 57.849 119.583,57.708 119.677,57.708 119.792 M89.230 120.208 C 89.101 120.552,89.071 120.833,89.164 120.833 C 89.258 120.833,89.432 120.552,89.552 120.208 C 89.672 119.865,89.702 119.583,89.618 119.583 C 89.535 119.583,89.360 119.865,89.230 120.208 M80.469 121.673 C 80.211 121.777,80.000 121.962,80.000 122.084 C 80.000 122.338,80.722 122.016,80.938 121.666 C 81.087 121.425,81.086 121.425,80.469 121.673 M88.027 122.905 C 87.853 123.242,87.789 123.567,87.885 123.626 C 87.981 123.686,88.160 123.410,88.281 123.013 C 88.552 122.130,88.450 122.087,88.027 122.905 M78.750 123.021 C 78.418 123.421,78.757 123.426,79.283 123.027 C 79.623 122.770,79.633 122.721,79.348 122.715 C 79.162 122.711,78.893 122.849,78.750 123.021 M86.604 125.915 C 86.518 126.132,86.498 126.359,86.558 126.419 C 86.748 126.609,86.915 126.297,86.835 125.902 C 86.762 125.539,86.751 125.540,86.604 125.915 M85.863 127.530 C 85.716 127.765,85.642 128.003,85.698 128.059 C 85.754 128.115,85.909 127.957,86.042 127.708 C 86.357 127.120,86.210 126.974,85.863 127.530 M69.115 127.852 C 68.914 127.904,68.750 128.025,68.750 128.121 C 68.750 128.216,68.938 128.245,69.167 128.185 C 69.396 128.125,69.583 127.994,69.583 127.892 C 69.583 127.791,69.560 127.719,69.531 127.733 C 69.503 127.746,69.315 127.800,69.115 127.852 M84.293 130.746 C 84.125 131.184,84.133 131.250,84.351 131.250 C 84.452 131.250,84.584 131.063,84.644 130.833 C 84.772 130.341,84.477 130.268,84.293 130.746 M63.881 133.016 C 63.948 133.191,64.134 133.333,64.293 133.333 C 64.700 133.333,64.654 133.178,64.171 132.919 C 63.835 132.739,63.782 132.757,63.881 133.016 M73.750 133.333 C 68.766 133.391,64.922 133.507,65.208 133.591 C 65.885 133.791,82.625 133.695,82.830 133.490 C 83.093 133.226,83.075 133.226,73.750 133.333 " stroke="none" fill="#4a5daa" fill-rule="evenodd"></path><path id="path3" d="M45.938 49.375 C 45.142 49.902,45.333 49.903,46.488 49.380 C 47.044 49.127,47.234 48.966,46.979 48.964 C 46.750 48.963,46.281 49.147,45.938 49.375 M47.800 49.277 C 48.023 49.446,48.298 49.583,48.413 49.583 C 48.528 49.583,48.439 49.446,48.217 49.277 C 47.994 49.109,47.719 48.972,47.604 48.972 C 47.490 48.972,47.578 49.109,47.800 49.277 M99.167 49.608 C 99.167 49.736,98.984 49.792,98.757 49.733 C 98.532 49.674,98.361 49.687,98.377 49.761 C 98.421 49.965,97.869 51.042,97.720 51.042 C 97.648 51.042,97.589 51.222,97.589 51.443 C 97.589 51.664,97.663 51.799,97.753 51.743 C 97.843 51.688,97.917 51.500,97.917 51.326 C 97.917 50.064,99.525 49.562,101.165 50.313 C 102.453 50.901,102.500 50.912,102.500 50.625 C 102.500 50.510,102.430 50.431,102.344 50.449 C 102.258 50.467,101.839 50.326,101.413 50.136 C 100.987 49.947,100.542 49.792,100.423 49.792 C 100.305 49.792,100.208 49.698,100.208 49.583 C 100.208 49.469,99.974 49.375,99.688 49.375 C 99.401 49.375,99.167 49.480,99.167 49.608 M44.323 50.034 C 44.008 50.149,43.750 50.320,43.750 50.415 C 43.750 50.665,44.529 50.420,44.810 50.082 C 45.084 49.752,45.093 49.753,44.323 50.034 M48.600 49.950 C 48.644 50.035,48.839 50.452,49.033 50.877 C 49.473 51.838,49.854 52.116,49.554 51.257 C 49.433 50.909,49.248 50.571,49.143 50.506 C 49.038 50.441,48.999 50.310,49.058 50.216 C 49.116 50.121,49.019 49.988,48.842 49.920 C 48.665 49.852,48.556 49.866,48.600 49.950 M102.725 50.784 C 102.710 51.016,103.247 51.301,106.250 52.657 C 106.651 52.839,107.049 53.023,107.135 53.068 C 107.221 53.113,107.292 53.050,107.292 52.929 C 107.292 52.808,107.189 52.708,107.062 52.708 C 106.936 52.708,106.044 52.333,105.079 51.875 C 104.115 51.417,103.241 51.042,103.138 51.042 C 103.036 51.042,102.904 50.924,102.846 50.781 C 102.763 50.575,102.738 50.575,102.725 50.784 M41.979 51.190 C 41.000 51.584,40.934 51.629,41.091 51.785 C 41.213 51.907,42.917 51.112,42.917 50.933 C 42.917 50.807,42.963 50.794,41.979 51.190 M39.965 52.031 C 39.927 52.117,39.449 52.412,38.902 52.687 C 38.356 52.962,37.938 53.215,37.973 53.250 C 38.091 53.369,40.208 52.239,40.208 52.057 C 40.208 51.834,40.060 51.818,39.965 52.031 M96.900 52.917 C 96.762 53.375,96.554 53.750,96.438 53.750 C 96.321 53.750,96.292 53.858,96.374 53.990 C 96.504 54.201,97.463 52.698,97.491 52.240 C 97.521 51.742,97.111 52.211,96.900 52.917 M50.213 53.229 C 50.325 53.516,50.513 53.997,50.631 54.300 C 50.749 54.602,50.892 54.803,50.949 54.746 C 51.066 54.629,50.281 52.708,50.117 52.708 C 50.058 52.708,50.102 52.943,50.213 53.229 M107.500 53.154 C 107.500 53.253,107.535 53.333,107.578 53.333 C 107.621 53.333,108.184 53.567,108.828 53.852 C 109.473 54.137,110.000 54.277,110.000 54.164 C 110.000 54.051,109.883 53.955,109.740 53.952 C 109.596 53.948,109.034 53.727,108.490 53.460 C 107.945 53.194,107.500 53.056,107.500 53.154 M36.563 53.690 C 35.601 54.077,35.519 54.130,35.658 54.269 C 35.715 54.326,36.223 54.143,36.787 53.864 C 37.949 53.288,37.817 53.185,36.563 53.690 M110.208 54.370 C 110.208 54.451,110.466 54.637,110.781 54.784 C 112.237 55.464,112.708 55.620,112.708 55.419 C 112.708 55.303,112.584 55.208,112.431 55.208 C 112.279 55.208,111.716 54.987,111.181 54.716 C 110.646 54.445,110.208 54.289,110.208 54.370 M96.146 54.583 C 96.217 54.698,96.191 54.792,96.089 54.792 C 95.987 54.792,95.803 55.120,95.679 55.521 C 95.385 56.480,95.517 56.444,96.037 55.425 C 96.521 54.478,96.540 54.375,96.238 54.375 C 96.116 54.375,96.075 54.469,96.146 54.583 M33.802 54.967 C 33.315 55.150,32.917 55.373,32.917 55.462 C 32.917 55.715,33.154 55.647,34.167 55.104 C 35.234 54.532,35.095 54.480,33.802 54.967 M113.065 55.554 C 112.916 55.795,114.504 56.607,114.714 56.397 C 114.784 56.327,114.595 56.209,114.295 56.133 C 113.995 56.058,113.750 55.907,113.750 55.798 C 113.750 55.690,113.664 55.653,113.559 55.718 C 113.455 55.783,113.331 55.723,113.285 55.584 C 113.229 55.415,113.157 55.405,113.065 55.554 M31.198 56.194 C 30.768 56.371,30.417 56.594,30.417 56.690 C 30.417 56.879,31.300 56.546,31.973 56.103 C 32.507 55.753,32.181 55.791,31.198 56.194 M51.771 56.667 C 51.949 57.010,52.134 57.292,52.182 57.292 C 52.230 57.292,52.172 57.010,52.052 56.667 C 51.932 56.323,51.747 56.042,51.641 56.042 C 51.535 56.042,51.593 56.323,51.771 56.667 M29.702 57.202 C 29.248 57.656,29.318 59.792,29.787 59.792 C 29.872 59.792,29.840 59.410,29.716 58.943 C 29.528 58.240,29.549 57.990,29.839 57.485 C 30.231 56.803,30.189 56.716,29.702 57.202 M116.435 57.374 C 116.709 57.526,117.047 57.863,117.187 58.124 C 117.351 58.431,117.492 58.515,117.587 58.361 C 117.667 58.231,117.634 58.125,117.512 58.125 C 117.391 58.125,117.292 57.999,117.292 57.846 C 117.292 57.692,117.053 57.458,116.761 57.325 C 116.043 56.998,115.818 57.032,116.435 57.374 M94.387 58.281 C 93.905 59.628,93.918 59.716,94.458 58.750 C 95.021 57.741,95.094 57.500,94.834 57.500 C 94.742 57.500,94.541 57.852,94.387 58.281 M52.814 58.906 C 52.896 59.107,53.011 59.435,53.069 59.635 C 53.126 59.836,53.242 60.000,53.327 60.000 C 53.411 60.000,53.377 59.672,53.251 59.271 C 53.126 58.870,52.942 58.542,52.843 58.542 C 52.745 58.542,52.731 58.706,52.814 58.906 M29.792 60.208 C 29.792 60.323,29.891 60.417,30.012 60.417 C 30.134 60.417,30.180 60.502,30.115 60.607 C 30.050 60.712,30.068 60.829,30.155 60.868 C 30.242 60.906,30.481 61.301,30.686 61.745 C 30.891 62.188,31.096 62.515,31.141 62.470 C 31.267 62.344,30.141 60.000,29.955 60.000 C 29.865 60.000,29.792 60.094,29.792 60.208 M93.456 60.387 C 93.190 60.817,92.935 61.680,93.105 61.575 C 93.208 61.511,93.390 61.178,93.510 60.834 C 93.718 60.237,93.691 60.007,93.456 60.387 M116.684 60.802 C 116.410 61.313,116.401 61.458,116.642 61.458 C 116.832 61.458,117.129 60.601,116.988 60.460 C 116.944 60.417,116.807 60.570,116.684 60.802 M53.750 60.948 C 53.750 61.176,54.408 62.328,54.491 62.245 C 54.622 62.114,54.097 60.833,53.913 60.833 C 53.823 60.833,53.750 60.885,53.750 60.948 M115.635 63.047 C 115.146 64.153,115.143 64.167,115.400 64.167 C 115.506 64.167,115.654 63.885,115.730 63.540 C 115.805 63.195,115.930 62.952,116.007 62.999 C 116.083 63.046,116.159 62.860,116.176 62.584 C 116.219 61.869,116.118 61.956,115.635 63.047 M92.215 63.081 C 92.000 63.429,91.675 64.375,91.771 64.375 C 91.927 64.375,92.538 63.093,92.432 62.988 C 92.378 62.933,92.280 62.975,92.215 63.081 M55.353 64.268 C 55.544 64.668,55.728 64.966,55.763 64.932 C 55.877 64.817,55.329 63.542,55.166 63.542 C 55.078 63.542,55.163 63.869,55.353 64.268 M31.993 64.635 C 32.073 64.893,32.220 65.136,32.321 65.174 C 32.421 65.212,32.450 65.330,32.385 65.434 C 32.320 65.539,32.366 65.625,32.488 65.625 C 32.780 65.625,32.767 65.510,32.390 64.781 C 32.015 64.054,31.786 63.971,31.993 64.635 M114.405 65.759 C 114.149 66.286,113.988 66.766,114.048 66.826 C 114.107 66.885,114.348 66.486,114.583 65.938 C 115.137 64.646,115.008 64.517,114.405 65.759 M90.833 65.816 C 90.833 65.922,90.771 66.171,90.694 66.371 C 90.606 66.600,90.635 66.685,90.773 66.600 C 91.061 66.422,91.265 65.625,91.022 65.625 C 90.918 65.625,90.833 65.711,90.833 65.816 M32.782 66.094 C 32.841 66.237,33.004 66.706,33.144 67.135 C 33.354 67.778,33.750 68.219,33.750 67.810 C 33.750 67.610,32.871 65.833,32.772 65.833 C 32.718 65.833,32.722 65.951,32.782 66.094 M56.296 66.406 C 56.340 66.492,56.537 66.914,56.733 67.344 C 57.225 68.423,57.346 68.325,56.924 67.188 C 56.733 66.672,56.495 66.250,56.396 66.250 C 56.297 66.250,56.251 66.320,56.296 66.406 M89.778 68.270 C 89.515 68.821,89.246 69.318,89.181 69.375 C 89.044 69.496,88.964 70.208,89.088 70.208 C 89.227 70.208,90.442 67.456,90.346 67.360 C 90.296 67.310,90.041 67.720,89.778 68.270 M112.945 68.890 C 112.575 69.642,112.307 70.293,112.351 70.337 C 112.395 70.382,112.701 69.878,113.030 69.219 C 113.359 68.560,113.712 67.962,113.815 67.891 C 113.926 67.814,113.924 67.712,113.811 67.642 C 113.706 67.577,113.316 68.139,112.945 68.890 M33.660 68.284 C 33.783 68.369,34.046 68.851,34.245 69.357 C 34.606 70.272,35.208 71.282,35.208 70.971 C 35.208 70.570,33.890 68.125,33.676 68.128 C 33.511 68.130,33.506 68.179,33.660 68.284 M58.062 70.102 C 58.252 70.501,58.436 70.800,58.471 70.765 C 58.585 70.651,58.038 69.375,57.874 69.375 C 57.787 69.375,57.871 69.702,58.062 70.102 M88.375 71.198 C 88.261 71.513,88.100 71.958,88.017 72.188 L 87.865 72.604 88.161 72.188 C 88.613 71.549,88.971 70.625,88.766 70.625 C 88.665 70.625,88.489 70.883,88.375 71.198 M111.913 71.145 C 111.783 71.432,111.756 71.667,111.855 71.667 C 112.028 71.667,112.340 70.812,112.213 70.685 C 112.179 70.651,112.044 70.858,111.913 71.145 M58.545 71.104 C 58.539 71.410,59.196 72.540,59.312 72.424 C 59.375 72.361,59.229 72.001,58.988 71.623 C 58.746 71.246,58.547 71.012,58.545 71.104 M35.303 71.563 C 35.391 71.792,35.511 72.143,35.569 72.344 C 35.626 72.544,35.759 72.708,35.863 72.708 C 35.967 72.708,35.897 72.404,35.708 72.031 C 35.302 71.234,35.074 70.969,35.303 71.563 M87.534 72.865 C 87.553 72.951,87.365 73.474,87.117 74.028 C 86.481 75.448,86.575 75.523,87.292 74.167 C 87.960 72.902,88.015 72.708,87.708 72.708 C 87.594 72.708,87.515 72.779,87.534 72.865 M110.707 73.698 C 110.512 74.128,109.992 75.232,109.551 76.153 C 108.690 77.952,108.638 78.125,108.958 78.125 C 109.073 78.125,109.149 78.055,109.128 77.969 C 109.107 77.883,109.236 77.476,109.416 77.065 C 109.595 76.654,109.806 76.115,109.885 75.867 C 109.964 75.619,110.131 75.417,110.257 75.417 C 110.383 75.417,110.424 75.355,110.349 75.280 C 110.274 75.204,110.304 75.032,110.416 74.897 C 110.648 74.617,111.276 72.917,111.146 72.917 C 111.100 72.917,110.902 73.268,110.707 73.698 M36.619 74.427 C 37.007 75.452,37.048 75.522,37.186 75.383 C 37.291 75.279,36.517 73.542,36.366 73.542 C 36.321 73.542,36.434 73.940,36.619 74.427 M59.792 73.822 C 59.792 74.047,60.476 75.218,60.559 75.135 C 60.614 75.080,60.537 74.817,60.389 74.549 C 60.241 74.281,60.140 73.992,60.164 73.906 C 60.188 73.820,60.115 73.750,60.000 73.750 C 59.885 73.750,59.792 73.782,59.792 73.822 M61.250 76.940 C 61.250 76.976,61.487 77.468,61.777 78.034 C 62.068 78.600,62.261 78.922,62.208 78.750 C 61.763 77.323,61.577 76.875,61.425 76.875 C 61.329 76.875,61.250 76.904,61.250 76.940 M37.917 77.245 C 37.917 77.334,38.054 77.603,38.222 77.843 C 38.390 78.083,38.468 78.338,38.395 78.410 C 38.323 78.482,38.373 78.542,38.507 78.542 C 38.816 78.542,38.814 78.527,38.422 77.740 C 38.103 77.100,37.917 76.918,37.917 77.245 M85.034 78.281 C 85.053 78.367,84.863 78.896,84.612 79.457 C 84.361 80.017,84.196 80.515,84.244 80.564 C 84.319 80.639,85.417 78.430,85.417 78.204 C 85.417 78.161,85.323 78.125,85.208 78.125 C 85.094 78.125,85.015 78.195,85.034 78.281 M108.328 78.868 C 108.216 79.162,108.028 79.584,107.909 79.806 C 107.782 80.044,107.774 80.208,107.890 80.208 C 107.998 80.208,108.230 79.786,108.405 79.271 C 108.741 78.284,108.677 77.950,108.328 78.868 M38.679 79.118 C 38.812 79.203,39.088 79.694,39.293 80.209 C 39.498 80.724,39.803 81.285,39.970 81.455 C 40.314 81.802,40.314 81.802,39.533 80.156 C 39.220 79.497,38.846 78.960,38.701 78.962 C 38.508 78.964,38.502 79.006,38.679 79.118 M62.292 79.279 C 62.292 79.513,63.158 81.078,63.241 80.995 C 63.380 80.857,62.665 79.167,62.468 79.167 C 62.371 79.167,62.292 79.217,62.292 79.279 M106.985 81.656 C 106.621 82.359,106.597 82.500,106.840 82.500 C 106.935 82.500,107.114 82.172,107.237 81.771 C 107.511 80.880,107.410 80.834,106.985 81.656 M83.403 82.031 C 83.225 82.461,82.985 82.871,82.871 82.943 C 82.736 83.027,82.735 83.117,82.868 83.199 C 82.981 83.269,83.267 82.859,83.504 82.288 C 83.741 81.717,83.889 81.250,83.832 81.250 C 83.775 81.250,83.582 81.602,83.403 82.031 M40.208 81.977 C 40.208 82.167,40.831 83.333,40.932 83.333 C 41.082 83.333,40.595 82.089,40.396 81.966 C 40.293 81.903,40.208 81.907,40.208 81.977 M64.279 83.456 C 64.696 84.362,65.125 85.328,65.233 85.602 C 65.340 85.876,65.470 86.058,65.520 86.008 C 65.670 85.858,65.155 84.375,64.953 84.375 C 64.851 84.375,64.825 84.281,64.896 84.167 C 64.967 84.052,64.940 83.958,64.837 83.958 C 64.734 83.958,64.526 83.582,64.374 83.122 C 64.222 82.662,63.968 82.178,63.810 82.046 C 63.651 81.915,63.862 82.549,64.279 83.456 M106.181 83.490 C 105.886 83.979,105.460 85.208,105.585 85.208 C 105.666 85.208,105.884 84.786,106.070 84.271 C 106.376 83.418,106.423 83.086,106.181 83.490 M82.534 83.982 C 82.226 84.475,81.851 85.417,81.963 85.417 C 82.066 85.417,82.920 83.684,82.851 83.615 C 82.821 83.585,82.678 83.750,82.534 83.982 M41.687 85.260 C 42.144 86.418,42.239 86.581,42.379 86.440 C 42.483 86.336,41.510 84.167,41.359 84.167 C 41.303 84.167,41.450 84.659,41.687 85.260 M105.007 85.820 C 104.691 86.411,104.732 86.738,105.082 86.414 C 105.242 86.267,105.324 86.065,105.264 85.966 C 105.204 85.868,105.284 85.705,105.442 85.605 C 105.639 85.480,105.649 85.422,105.476 85.420 C 105.337 85.418,105.126 85.598,105.007 85.820 M42.510 86.701 C 42.489 86.993,43.349 88.803,43.457 88.696 C 43.519 88.633,43.334 88.128,43.045 87.572 C 42.756 87.017,42.515 86.625,42.510 86.701 M104.385 87.274 C 104.257 87.513,104.239 87.708,104.345 87.708 C 104.559 87.708,104.855 87.077,104.709 86.932 C 104.659 86.881,104.512 87.035,104.385 87.274 M66.048 87.200 C 66.045 87.321,66.179 87.602,66.348 87.825 C 66.516 88.047,66.656 88.130,66.660 88.009 C 66.664 87.887,66.529 87.606,66.361 87.384 C 66.193 87.161,66.052 87.078,66.048 87.200 M80.659 88.030 C 80.310 88.796,80.376 88.959,80.754 88.263 C 80.930 87.938,81.035 87.633,80.988 87.585 C 80.940 87.537,80.792 87.737,80.659 88.030 M66.780 88.802 C 66.858 89.060,67.008 89.362,67.112 89.474 C 67.217 89.586,67.198 89.375,67.069 89.006 C 66.805 88.249,66.561 88.077,66.780 88.802 M102.727 90.842 C 102.244 91.882,101.886 92.844,101.931 92.981 C 101.977 93.117,102.178 92.737,102.378 92.135 C 102.578 91.534,102.808 91.042,102.888 91.042 C 103.052 91.042,103.797 89.144,103.680 89.027 C 103.639 88.986,103.210 89.803,102.727 90.842 M43.750 89.453 C 43.750 89.699,44.635 91.476,44.717 91.394 C 44.818 91.293,43.977 89.375,43.831 89.375 C 43.787 89.375,43.750 89.410,43.750 89.453 M79.799 89.778 C 79.535 90.271,79.523 90.479,79.767 90.328 C 79.950 90.214,80.237 89.375,80.092 89.375 C 80.049 89.375,79.918 89.556,79.799 89.778 M67.292 89.846 C 67.292 89.890,67.565 90.481,67.899 91.161 C 68.257 91.888,68.496 92.203,68.480 91.927 C 68.465 91.669,68.386 91.458,68.305 91.458 C 68.224 91.458,68.049 91.132,67.918 90.732 C 67.723 90.141,67.292 89.531,67.292 89.846 M44.867 92.031 C 44.883 92.232,44.953 92.443,45.022 92.500 C 45.092 92.557,45.351 93.064,45.598 93.626 C 45.845 94.188,46.097 94.598,46.158 94.537 C 46.268 94.426,45.080 91.667,44.921 91.667 C 44.875 91.667,44.851 91.831,44.867 92.031 M78.562 92.323 C 78.237 93.255,78.278 93.317,78.750 92.604 C 79.204 91.918,79.266 91.667,78.979 91.667 C 78.875 91.667,78.688 91.962,78.562 92.323 M68.551 92.656 C 68.556 92.742,68.794 93.234,69.080 93.750 C 69.366 94.266,69.556 94.547,69.501 94.375 C 69.025 92.872,68.869 92.500,68.717 92.500 C 68.621 92.500,68.546 92.570,68.551 92.656 M101.458 93.399 C 101.458 93.449,101.225 94.017,100.940 94.662 C 100.655 95.306,100.499 95.833,100.594 95.833 C 100.689 95.833,100.894 95.446,101.051 94.972 C 101.207 94.499,101.457 93.989,101.607 93.840 C 101.779 93.667,101.802 93.521,101.668 93.438 C 101.553 93.367,101.458 93.349,101.458 93.399 M77.742 93.906 C 77.760 93.992,77.658 94.344,77.514 94.688 C 76.993 95.931,76.887 96.250,76.996 96.250 C 77.098 96.250,78.125 94.066,78.125 93.848 C 78.125 93.794,78.031 93.750,77.917 93.750 C 77.802 93.750,77.723 93.820,77.742 93.906 M46.527 95.504 C 46.604 95.704,46.667 95.953,46.667 96.059 C 46.667 96.164,46.752 96.250,46.855 96.250 C 47.098 96.250,46.894 95.453,46.606 95.275 C 46.469 95.190,46.439 95.275,46.527 95.504 M69.801 95.365 C 69.807 95.451,70.092 96.036,70.435 96.667 C 71.119 97.926,71.128 97.894,70.532 96.296 C 70.187 95.372,69.768 94.838,69.801 95.365 M76.491 96.615 C 76.508 96.701,76.368 97.119,76.178 97.545 C 75.670 98.688,75.777 98.787,76.354 97.708 C 76.917 96.657,76.967 96.458,76.667 96.458 C 76.552 96.458,76.473 96.529,76.491 96.615 M99.520 97.815 C 99.329 98.215,99.256 98.542,99.358 98.542 C 99.541 98.542,100.064 97.286,99.934 97.156 C 99.897 97.119,99.710 97.416,99.520 97.815 M47.737 98.118 C 47.858 98.466,48.038 98.801,48.137 98.862 C 48.236 98.923,48.217 98.688,48.096 98.340 C 47.975 97.992,47.795 97.658,47.696 97.597 C 47.597 97.536,47.616 97.770,47.737 98.118 M71.099 98.073 C 71.144 98.159,71.384 98.674,71.633 99.219 C 71.882 99.763,72.185 100.208,72.308 100.208 C 72.434 100.208,72.407 100.086,72.245 99.923 C 72.088 99.767,71.832 99.251,71.676 98.778 C 71.519 98.304,71.307 97.917,71.204 97.917 C 71.101 97.917,71.054 97.987,71.099 98.073 M98.899 99.001 C 98.838 99.150,98.637 99.622,98.454 100.052 C 98.270 100.482,98.171 100.833,98.234 100.833 C 98.386 100.833,99.200 98.923,99.093 98.816 C 99.047 98.770,98.960 98.853,98.899 99.001 M74.986 100.145 C 74.723 100.696,74.421 101.204,74.315 101.276 C 74.197 101.356,74.197 101.452,74.315 101.525 C 74.509 101.645,75.723 99.403,75.555 99.235 C 75.505 99.186,75.249 99.595,74.986 100.145 M49.099 101.095 C 49.300 101.639,49.534 102.083,49.618 102.083 C 49.794 102.083,49.226 100.624,48.930 100.314 C 48.822 100.201,48.897 100.552,49.099 101.095 M72.300 100.573 C 72.312 100.782,73.105 102.224,73.116 102.057 C 73.131 101.841,72.503 100.417,72.393 100.417 C 72.337 100.417,72.296 100.487,72.300 100.573 M97.534 101.988 C 97.185 102.754,97.251 102.918,97.629 102.221 C 97.805 101.896,97.910 101.591,97.863 101.543 C 97.815 101.496,97.667 101.696,97.534 101.988 M50.136 103.229 C 50.312 103.744,50.541 104.219,50.645 104.283 C 50.912 104.448,50.887 104.341,50.407 103.256 C 49.864 102.028,49.722 102.014,50.136 103.229 M79.392 102.999 C 79.440 103.044,79.854 103.232,80.313 103.417 L 81.146 103.753 80.625 103.339 C 80.208 103.008,79.071 102.694,79.392 102.999 M96.563 104.063 C 95.754 105.847,95.595 106.293,95.819 106.155 C 95.925 106.089,96.119 105.709,96.251 105.310 C 96.383 104.910,96.574 104.583,96.676 104.583 C 96.778 104.583,96.808 104.443,96.742 104.271 C 96.676 104.099,96.731 103.958,96.865 103.958 C 96.999 103.958,97.055 103.873,96.990 103.768 C 96.925 103.663,96.981 103.541,97.113 103.497 C 97.246 103.453,97.304 103.281,97.242 103.115 C 97.174 102.931,96.908 103.304,96.563 104.063 M79.801 104.496 C 80.293 105.372,80.301 105.503,79.881 105.923 C 79.701 106.103,79.651 106.250,79.769 106.250 C 80.501 106.250,80.428 104.167,79.687 103.883 C 79.473 103.801,79.504 103.967,79.801 104.496 M82.917 104.794 C 84.880 105.873,85.214 106.855,83.990 107.949 C 83.625 108.275,83.431 108.542,83.559 108.542 C 84.003 108.542,85.000 107.257,85.000 106.684 C 85.000 105.939,83.250 104.357,82.455 104.384 C 82.308 104.389,82.516 104.574,82.917 104.794 M51.601 106.406 C 51.673 106.607,51.810 106.873,51.906 106.998 C 52.001 107.123,52.018 107.288,51.943 107.363 C 51.867 107.438,51.915 107.500,52.049 107.500 C 52.365 107.500,52.356 107.395,51.974 106.656 C 51.625 105.983,51.395 105.828,51.601 106.406 M77.604 106.667 C 77.375 106.765,75.922 106.863,74.375 106.885 C 71.903 106.920,69.508 107.177,70.729 107.276 C 72.471 107.419,73.962 107.444,73.125 107.318 C 72.455 107.217,73.098 107.142,75.374 107.057 C 77.350 106.984,78.653 106.847,78.801 106.699 C 79.093 106.407,78.260 106.385,77.604 106.667 M69.167 107.500 C 69.167 107.615,69.307 107.708,69.479 107.708 C 69.651 107.708,69.792 107.615,69.792 107.500 C 69.792 107.385,69.651 107.292,69.479 107.292 C 69.307 107.292,69.167 107.385,69.167 107.500 M67.604 107.708 C 67.675 107.823,67.868 107.917,68.033 107.917 C 68.198 107.917,68.333 107.823,68.333 107.708 C 68.333 107.594,68.140 107.500,67.904 107.500 C 67.668 107.500,67.533 107.594,67.604 107.708 M94.799 107.903 C 94.681 108.124,94.484 108.569,94.362 108.892 C 94.035 109.758,94.494 109.225,94.888 108.281 C 95.229 107.463,95.170 107.210,94.799 107.903 M66.292 107.927 C 65.289 108.145,65.164 108.397,66.146 108.220 C 66.604 108.137,67.018 108.035,67.066 107.993 C 67.267 107.816,66.934 107.787,66.292 107.927 M52.595 108.438 C 52.683 108.667,52.803 109.018,52.860 109.219 C 52.918 109.419,53.050 109.583,53.155 109.583 C 53.259 109.583,53.189 109.279,53.000 108.906 C 52.594 108.109,52.365 107.844,52.595 108.438 M63.583 109.229 C 62.476 110.371,62.875 111.928,64.567 113.068 C 65.691 113.826,65.753 113.615,64.651 112.780 C 63.491 111.901,63.300 111.666,63.437 111.291 C 63.492 111.142,63.444 111.077,63.331 111.147 C 63.213 111.220,63.125 111.010,63.125 110.653 C 63.125 109.990,64.067 108.664,64.394 108.866 C 64.498 108.930,64.583 108.884,64.583 108.762 C 64.583 108.375,64.267 108.523,63.583 109.229 M81.500 108.956 C 81.122 109.045,80.762 109.168,80.701 109.229 C 80.512 109.419,82.384 109.125,82.594 108.932 C 82.828 108.717,82.477 108.724,81.500 108.956 M79.375 109.375 C 79.375 109.490,79.557 109.583,79.779 109.583 C 80.002 109.583,80.242 109.490,80.313 109.375 C 80.386 109.257,80.210 109.167,79.908 109.167 C 79.615 109.167,79.375 109.260,79.375 109.375 M53.449 110.104 C 53.958 111.660,54.229 112.292,54.388 112.292 C 54.488 112.292,54.510 112.135,54.437 111.943 C 54.206 111.343,53.306 109.666,53.449 110.104 M93.541 110.544 C 93.152 111.608,93.136 111.667,93.246 111.667 C 93.417 111.667,93.995 110.176,93.872 110.053 C 93.811 109.992,93.663 110.213,93.541 110.544 M74.775 111.009 C 73.876 111.891,73.840 111.981,74.219 112.403 C 74.362 112.563,74.600 112.838,74.748 113.014 C 74.896 113.189,75.120 113.333,75.247 113.333 C 75.374 113.333,75.240 113.113,74.949 112.844 C 74.232 112.179,74.390 111.350,75.341 110.789 C 76.073 110.357,76.195 110.208,75.817 110.208 C 75.693 110.208,75.225 110.569,74.775 111.009 M92.101 113.655 C 91.600 114.788,91.599 114.792,91.875 114.792 C 91.990 114.792,92.069 114.721,92.051 114.635 C 92.033 114.549,92.180 114.117,92.376 113.675 C 92.572 113.233,92.688 112.827,92.634 112.773 C 92.579 112.718,92.339 113.115,92.101 113.655 M55.159 114.063 C 55.350 114.578,55.580 115.000,55.670 115.000 C 55.911 115.000,55.877 114.860,55.412 113.950 C 54.851 112.850,54.730 112.904,55.159 114.063 M66.317 113.898 C 66.495 114.186,67.292 114.390,67.292 114.147 C 67.292 114.043,67.206 113.958,67.100 113.958 C 66.995 113.958,66.745 113.896,66.545 113.819 C 66.317 113.731,66.232 113.760,66.317 113.898 M76.458 113.941 C 76.458 114.028,76.833 114.224,77.292 114.375 C 77.750 114.526,78.125 114.726,78.125 114.818 C 78.125 114.911,78.266 114.933,78.438 114.867 C 78.609 114.801,78.750 114.855,78.750 114.987 C 78.750 115.119,78.867 115.208,79.010 115.185 C 79.154 115.162,79.411 115.196,79.583 115.262 C 80.944 115.781,81.957 116.017,81.575 115.725 C 81.352 115.555,81.054 115.417,80.912 115.417 C 80.770 115.417,79.710 115.049,78.556 114.599 C 77.402 114.149,76.458 113.853,76.458 113.941 M67.500 114.369 C 67.500 114.471,67.671 114.610,67.880 114.676 C 68.793 114.966,69.480 115.996,69.066 116.455 C 68.628 116.939,69.020 117.051,69.494 116.577 C 69.838 116.233,69.886 115.833,69.583 115.833 C 69.469 115.833,69.372 115.716,69.368 115.573 C 69.361 115.279,67.500 114.080,67.500 114.369 M90.968 116.176 C 90.654 116.817,90.436 117.380,90.483 117.428 C 90.531 117.475,90.821 116.984,91.127 116.336 C 91.434 115.688,91.652 115.125,91.612 115.085 C 91.572 115.044,91.282 115.536,90.968 116.176 M56.269 116.399 C 56.501 116.940,56.787 117.498,56.905 117.640 C 57.023 117.782,57.059 117.996,56.985 118.116 C 56.911 118.235,56.941 118.333,57.051 118.333 C 57.161 118.333,57.349 118.615,57.469 118.958 C 57.630 119.422,57.810 119.577,58.166 119.559 C 58.518 119.541,58.549 119.510,58.282 119.440 C 58.067 119.384,57.536 118.539,56.988 117.381 C 56.025 115.349,55.527 114.668,56.269 116.399 M83.262 117.958 C 83.438 118.879,83.542 118.959,83.542 118.172 C 83.542 117.816,83.449 117.468,83.336 117.398 C 83.208 117.319,83.180 117.529,83.262 117.958 M65.764 117.851 C 65.210 118.021,64.809 118.211,64.872 118.275 C 65.023 118.426,66.852 117.914,66.997 117.680 C 67.137 117.453,67.005 117.472,65.764 117.851 M89.791 118.647 C 89.670 118.966,89.521 119.307,89.461 119.405 C 89.400 119.503,89.441 119.583,89.551 119.583 C 89.772 119.583,90.269 118.325,90.111 118.166 C 90.056 118.112,89.912 118.328,89.791 118.647 M63.125 118.750 C 63.125 118.865,63.266 118.958,63.438 118.958 C 63.609 118.958,63.750 118.865,63.750 118.750 C 63.750 118.635,63.609 118.542,63.438 118.542 C 63.266 118.542,63.125 118.635,63.125 118.750 M61.771 118.893 C 59.907 119.133,58.920 119.420,59.153 119.653 C 59.327 119.827,59.433 119.829,59.540 119.661 C 59.621 119.534,60.319 119.364,61.092 119.282 C 61.864 119.201,62.549 119.048,62.614 118.942 C 62.680 118.836,62.657 118.764,62.564 118.781 C 62.472 118.798,62.115 118.849,61.771 118.893 M82.083 120.444 C 81.453 121.116,80.848 121.760,80.740 121.875 C 80.631 121.989,80.607 122.083,80.688 122.083 C 80.881 122.083,83.333 119.526,83.333 119.324 C 83.333 119.106,83.362 119.081,82.083 120.444 M88.580 121.230 C 87.869 122.765,87.732 123.272,88.217 122.581 C 88.542 122.116,89.404 119.959,89.304 119.860 C 89.271 119.826,88.945 120.443,88.580 121.230 M80.050 122.222 C 79.905 122.280,79.687 122.514,79.566 122.741 C 79.351 123.142,79.361 123.144,79.881 122.803 C 80.294 122.532,80.655 122.008,80.365 122.100 C 80.336 122.109,80.194 122.164,80.050 122.222 M78.104 123.777 C 76.892 124.638,76.627 124.914,77.396 124.514 C 78.060 124.168,79.356 123.145,79.146 123.132 C 79.077 123.128,78.608 123.418,78.104 123.777 M76.048 124.992 C 75.879 125.098,75.792 125.237,75.855 125.299 C 75.917 125.361,76.149 125.276,76.369 125.109 C 76.809 124.776,76.542 124.679,76.048 124.992 M73.906 126.104 C 73.591 126.229,73.333 126.406,73.333 126.499 C 73.333 126.746,73.460 126.711,74.214 126.251 C 74.950 125.802,74.823 125.742,73.906 126.104 M86.389 125.990 C 86.109 126.455,85.635 127.781,85.812 127.604 C 86.056 127.360,86.716 125.833,86.578 125.833 C 86.526 125.833,86.441 125.904,86.389 125.990 M72.804 126.681 C 72.728 126.803,72.535 126.853,72.375 126.792 C 72.214 126.730,72.083 126.763,72.083 126.865 C 72.083 126.967,71.732 127.163,71.302 127.301 C 70.331 127.611,69.886 127.980,70.799 127.718 C 71.825 127.424,73.125 126.814,73.125 126.627 C 73.125 126.390,72.967 126.417,72.804 126.681 M69.583 127.917 C 69.583 128.031,69.427 128.125,69.236 128.125 C 69.045 128.125,68.944 128.180,69.012 128.248 C 69.186 128.422,70.000 128.137,70.000 127.903 C 70.000 127.796,69.906 127.708,69.792 127.708 C 69.677 127.708,69.583 127.802,69.583 127.917 M67.344 128.596 C 66.857 128.713,66.458 128.881,66.458 128.969 C 66.458 129.133,68.490 128.663,68.702 128.451 C 68.861 128.292,68.407 128.341,67.344 128.596 M84.796 129.367 C 84.332 130.277,84.297 130.417,84.538 130.417 C 84.628 130.417,84.858 129.995,85.049 129.479 C 85.479 128.321,85.357 128.267,84.796 129.367 M64.583 129.362 C 64.583 129.470,64.161 129.621,63.646 129.698 C 62.797 129.826,62.168 130.625,62.917 130.625 C 63.031 130.625,63.125 130.491,63.125 130.327 C 63.125 130.136,63.538 129.937,64.279 129.772 C 65.025 129.605,65.338 129.453,65.164 129.343 C 64.806 129.116,64.583 129.123,64.583 129.362 M83.640 131.888 C 83.430 132.353,83.017 132.865,82.723 133.025 C 82.428 133.186,82.312 133.320,82.464 133.325 C 82.850 133.337,83.958 132.187,83.958 131.775 C 83.958 131.587,84.051 131.491,84.164 131.561 C 84.282 131.634,84.317 131.550,84.246 131.365 C 84.077 130.925,84.073 130.928,83.640 131.888 M63.248 131.427 C 63.167 131.559,63.200 131.667,63.321 131.667 C 63.442 131.667,63.542 131.804,63.542 131.972 C 63.542 132.377,64.737 133.590,64.891 133.340 C 64.958 133.233,64.822 133.045,64.591 132.921 C 64.359 132.797,63.996 132.356,63.783 131.942 C 63.544 131.474,63.340 131.279,63.248 131.427 " stroke="none" fill="#2a4094" fill-rule="evenodd"></path><path id="path4" d="M42.083 51.952 C 42.083 52.244,42.804 52.708,43.259 52.708 C 44.157 52.708,43.799 51.992,42.863 51.915 C 42.434 51.879,42.083 51.896,42.083 51.952 M102.344 52.013 C 102.040 52.135,101.989 52.708,102.282 52.708 C 102.391 52.708,102.722 52.598,103.017 52.464 C 103.767 52.122,103.130 51.696,102.344 52.013 M97.708 53.003 C 97.708 53.354,97.823 53.542,98.035 53.542 C 98.252 53.542,98.340 53.390,98.296 53.089 C 98.198 52.422,97.708 52.351,97.708 53.003 M106.875 53.724 C 106.875 53.984,107.410 54.396,107.557 54.249 C 107.758 54.047,107.478 53.542,107.165 53.542 C 107.006 53.542,106.875 53.624,106.875 53.724 M37.923 53.950 C 37.659 54.117,37.664 54.163,37.965 54.278 C 38.376 54.436,38.808 54.221,38.637 53.944 C 38.487 53.702,38.313 53.703,37.923 53.950 M41.250 53.958 C 41.659 54.223,42.292 54.223,42.292 53.958 C 42.292 53.844,41.987 53.751,41.615 53.753 C 41.101 53.756,41.013 53.805,41.250 53.958 M103.229 53.958 C 103.158 54.073,103.293 54.167,103.529 54.167 C 103.765 54.167,103.958 54.073,103.958 53.958 C 103.958 53.844,103.823 53.750,103.658 53.750 C 103.493 53.750,103.300 53.844,103.229 53.958 M98.958 54.479 C 98.958 54.651,99.099 54.792,99.271 54.792 C 99.443 54.792,99.583 54.651,99.583 54.479 C 99.583 54.307,99.443 54.167,99.271 54.167 C 99.099 54.167,98.958 54.307,98.958 54.479 M33.878 55.871 C 33.972 56.023,33.918 56.072,33.732 56.002 C 33.570 55.941,33.250 55.965,33.021 56.056 C 32.697 56.184,32.775 56.224,33.373 56.235 C 34.186 56.251,34.593 55.962,34.050 55.753 C 33.840 55.673,33.780 55.714,33.878 55.871 M111.493 55.808 C 111.160 56.019,111.628 56.254,112.361 56.243 C 112.803 56.237,112.804 56.230,112.408 55.931 C 111.942 55.578,111.870 55.569,111.493 55.808 M36.250 56.146 C 36.250 56.318,36.344 56.458,36.458 56.458 C 36.573 56.458,36.667 56.318,36.667 56.146 C 36.667 55.974,36.573 55.833,36.458 55.833 C 36.344 55.833,36.250 55.974,36.250 56.146 M108.958 56.163 C 108.958 56.531,109.407 56.467,109.536 56.081 C 109.581 55.945,109.470 55.833,109.288 55.833 C 109.107 55.833,108.958 55.982,108.958 56.163 M34.010 57.013 C 33.545 57.201,33.736 57.445,34.268 57.343 C 34.554 57.289,34.735 57.161,34.673 57.060 C 34.549 56.860,34.414 56.850,34.010 57.013 M50.556 57.014 C 50.479 57.090,50.417 57.341,50.417 57.571 C 50.417 57.984,50.422 57.984,50.807 57.589 C 51.021 57.368,51.156 57.117,51.107 57.031 C 50.996 56.838,50.740 56.830,50.556 57.014 M110.938 57.083 C 110.863 57.204,111.056 57.290,111.394 57.288 C 111.848 57.286,111.909 57.240,111.667 57.083 C 111.266 56.825,111.097 56.825,110.938 57.083 M31.182 57.637 C 30.995 57.825,31.443 58.333,31.796 58.333 C 32.192 58.333,32.159 57.782,31.754 57.626 C 31.346 57.470,31.349 57.470,31.182 57.637 M95.223 57.743 C 95.215 57.935,95.151 58.239,95.082 58.420 C 95.011 58.605,95.062 58.750,95.198 58.750 C 95.332 58.750,95.388 58.664,95.323 58.559 C 95.259 58.455,95.287 58.337,95.387 58.299 C 95.487 58.261,95.495 58.042,95.403 57.813 C 95.273 57.484,95.235 57.469,95.223 57.743 M29.919 58.108 C 29.885 58.174,29.927 58.464,30.012 58.750 C 30.160 59.247,30.168 59.249,30.188 58.802 C 30.199 58.544,30.302 58.333,30.417 58.333 C 30.531 58.333,30.625 58.255,30.625 58.160 C 30.625 57.964,30.016 57.919,29.919 58.108 M115.260 59.930 C 114.883 60.082,114.941 60.507,115.396 60.919 C 115.888 61.364,116.118 61.060,115.840 60.330 C 115.727 60.034,115.610 59.799,115.578 59.808 C 115.547 59.817,115.404 59.872,115.260 59.930 M53.125 60.913 C 53.125 61.085,53.219 61.283,53.333 61.354 C 53.448 61.425,53.542 61.342,53.542 61.170 C 53.542 60.999,53.448 60.800,53.333 60.729 C 53.219 60.658,53.125 60.741,53.125 60.913 M95.833 61.458 C 95.833 61.688,95.927 61.875,96.042 61.875 C 96.156 61.875,96.250 61.688,96.250 61.458 C 96.250 61.229,96.156 61.042,96.042 61.042 C 95.927 61.042,95.833 61.229,95.833 61.458 M113.750 61.724 C 113.750 62.023,113.848 62.327,113.967 62.401 C 114.109 62.489,114.135 62.332,114.042 61.945 C 113.850 61.146,113.750 61.071,113.750 61.724 M94.110 62.209 C 94.027 62.293,93.958 62.505,93.958 62.681 C 93.958 62.915,94.020 62.938,94.190 62.768 C 94.318 62.641,94.386 62.429,94.342 62.297 C 94.298 62.165,94.194 62.126,94.110 62.209 M33.341 64.995 C 33.169 65.102,33.287 65.360,33.726 65.841 C 34.364 66.539,34.995 66.267,34.400 65.551 C 34.274 65.399,34.220 65.224,34.281 65.164 C 34.462 64.982,33.609 64.830,33.341 64.995 M111.458 67.083 C 111.458 67.198,111.599 67.292,111.771 67.292 C 111.943 67.292,112.083 67.198,112.083 67.083 C 112.083 66.969,111.943 66.875,111.771 66.875 C 111.599 66.875,111.458 66.969,111.458 67.083 M34.675 68.353 C 34.598 68.479,34.686 68.733,34.871 68.919 C 35.182 69.229,35.208 69.211,35.208 68.690 C 35.208 68.115,34.931 67.940,34.675 68.353 M90.552 68.806 C 90.353 68.951,90.150 69.385,90.102 69.770 C 90.016 70.446,90.026 70.457,90.410 70.110 C 91.233 69.365,91.358 68.216,90.552 68.806 M110.417 69.154 C 110.417 69.377,110.510 69.617,110.625 69.688 C 110.743 69.761,110.833 69.585,110.833 69.283 C 110.833 68.990,110.740 68.750,110.625 68.750 C 110.510 68.750,110.417 68.932,110.417 69.154 M35.510 70.156 C 35.606 70.974,35.629 70.993,35.847 70.450 C 36.047 69.951,35.953 69.583,35.625 69.583 C 35.524 69.583,35.472 69.841,35.510 70.156 M111.551 69.810 C 111.474 69.934,111.516 70.141,111.643 70.268 C 111.813 70.438,111.875 70.378,111.875 70.042 C 111.875 69.539,111.767 69.461,111.551 69.810 M109.058 73.133 C 108.976 73.265,109.050 73.514,109.222 73.686 C 109.628 74.092,109.837 73.754,109.481 73.266 C 109.289 73.005,109.162 72.964,109.058 73.133 M39.167 76.850 C 39.167 77.080,39.260 77.325,39.375 77.396 C 39.490 77.467,39.583 77.337,39.583 77.108 C 39.583 76.879,39.490 76.633,39.375 76.563 C 39.260 76.492,39.167 76.621,39.167 76.850 M107.344 77.187 C 107.103 77.461,106.971 78.333,107.171 78.333 C 107.286 78.333,108.542 77.078,108.542 76.963 C 108.542 76.742,107.576 76.922,107.344 77.187 M105.885 79.108 C 105.742 79.160,105.629 79.451,105.633 79.757 L 105.642 80.313 105.962 79.721 C 106.307 79.084,106.292 78.963,105.885 79.108 M107.143 79.240 C 107.256 79.581,107.708 79.647,107.708 79.323 C 107.708 79.161,107.565 79.028,107.390 79.028 C 107.215 79.028,107.104 79.123,107.143 79.240 M61.726 83.750 C 61.968 84.323,62.288 84.792,62.437 84.792 C 62.757 84.792,62.798 84.455,62.500 84.271 C 62.385 84.200,62.292 83.967,62.292 83.753 C 62.292 83.355,61.778 82.708,61.461 82.708 C 61.365 82.708,61.484 83.177,61.726 83.750 M63.485 83.251 C 63.258 83.478,63.302 84.123,63.556 84.279 C 63.892 84.487,63.961 84.310,63.791 83.675 C 63.706 83.358,63.569 83.168,63.485 83.251 M64.375 85.044 C 64.375 85.221,64.531 85.494,64.722 85.652 C 65.039 85.913,65.045 85.893,64.798 85.417 C 64.435 84.718,64.375 84.666,64.375 85.044 M63.157 86.550 C 63.197 86.741,63.323 86.892,63.438 86.886 C 63.747 86.870,63.690 86.404,63.366 86.295 C 63.190 86.237,63.112 86.332,63.157 86.550 M65.625 89.132 C 65.625 89.661,65.847 89.831,66.179 89.556 C 66.595 89.211,66.517 88.750,66.042 88.750 C 65.777 88.750,65.625 88.889,65.625 89.132 M100.951 89.144 C 100.799 89.391,101.028 90.000,101.272 90.000 C 101.519 90.000,101.512 89.225,101.264 89.071 C 101.158 89.005,101.017 89.038,100.951 89.144 M102.500 89.167 C 102.500 89.281,102.641 89.375,102.813 89.375 C 102.984 89.375,103.125 89.281,103.125 89.167 C 103.125 89.052,102.984 88.958,102.813 88.958 C 102.641 88.958,102.500 89.052,102.500 89.167 M67.501 91.941 C 67.500 92.586,67.828 93.333,68.113 93.333 C 68.328 93.333,68.163 92.619,67.777 91.881 L 67.503 91.354 67.501 91.941 M45.837 92.031 C 45.839 92.346,45.870 92.353,46.062 92.083 C 46.233 91.842,46.256 91.899,46.161 92.335 C 46.067 92.766,46.137 92.953,46.456 93.124 C 46.988 93.408,47.042 92.832,46.551 92.130 C 46.162 91.575,45.832 91.529,45.837 92.031 M66.875 94.688 C 66.875 94.859,67.016 95.000,67.188 95.000 C 67.359 95.000,67.500 94.859,67.500 94.688 C 67.500 94.516,67.359 94.375,67.188 94.375 C 67.016 94.375,66.875 94.516,66.875 94.688 M79.828 94.880 C 79.865 95.182,79.990 95.427,80.104 95.423 C 80.416 95.413,80.356 94.528,80.036 94.422 C 79.843 94.357,79.780 94.495,79.828 94.880 M78.698 96.604 C 78.649 96.696,78.722 96.987,78.860 97.251 C 79.103 97.714,79.116 97.716,79.222 97.311 C 79.330 96.897,78.872 96.280,78.698 96.604 M76.908 97.197 C 76.572 97.935,76.596 98.288,76.957 97.909 C 77.325 97.522,77.588 96.667,77.339 96.667 C 77.235 96.667,77.041 96.905,76.908 97.197 M51.466 99.385 C 51.470 99.552,51.616 99.922,51.790 100.208 L 52.107 100.729 51.976 100.104 C 51.833 99.419,51.453 98.885,51.466 99.385 M69.577 99.705 C 69.290 100.460,69.565 100.775,69.918 100.096 C 70.263 99.430,70.285 99.167,69.995 99.167 C 69.877 99.167,69.689 99.409,69.577 99.705 M50.314 100.469 C 50.232 100.669,50.033 100.833,49.874 100.833 C 49.714 100.833,49.583 100.933,49.583 101.054 C 49.583 101.175,49.676 101.217,49.789 101.147 C 49.911 101.072,49.940 101.164,49.860 101.372 C 49.766 101.617,49.814 101.694,50.019 101.626 C 50.180 101.572,50.313 101.395,50.313 101.233 C 50.313 101.070,50.394 100.878,50.494 100.805 C 50.594 100.733,50.628 100.545,50.570 100.389 C 50.491 100.173,50.429 100.192,50.314 100.469 M70.417 100.693 C 70.417 101.185,70.996 102.032,71.232 101.886 C 71.386 101.791,71.446 101.607,71.366 101.478 C 71.287 101.349,71.134 101.297,71.027 101.363 C 70.921 101.429,70.833 101.342,70.833 101.170 C 70.833 100.999,70.740 100.800,70.625 100.729 C 70.510 100.658,70.417 100.642,70.417 100.693 M50.966 103.229 C 50.901 103.401,50.922 103.745,51.014 103.995 L 51.182 104.448 51.301 103.995 C 51.366 103.746,51.337 103.542,51.237 103.542 C 51.137 103.542,51.109 103.401,51.175 103.229 C 51.241 103.057,51.248 102.917,51.190 102.917 C 51.133 102.917,51.032 103.057,50.966 103.229 M83.391 103.333 C 83.425 103.794,83.510 103.830,83.933 103.562 C 84.264 103.352,84.071 102.917,83.646 102.917 C 83.488 102.917,83.373 103.103,83.391 103.333 M95.764 103.056 C 95.546 103.274,95.602 104.167,95.833 104.167 C 95.948 104.167,96.042 103.885,96.042 103.542 C 96.042 102.894,95.999 102.820,95.764 103.056 M93.815 103.402 C 93.894 103.612,93.958 103.969,93.958 104.196 C 93.958 104.423,94.052 104.550,94.167 104.479 C 94.492 104.278,94.412 103.623,94.023 103.307 C 93.714 103.055,93.689 103.067,93.815 103.402 M77.571 103.867 C 77.389 104.341,77.673 104.500,78.042 104.131 C 78.335 103.838,78.333 103.795,78.029 103.678 C 77.827 103.600,77.644 103.676,77.571 103.867 M76.875 106.139 C 76.875 106.325,76.997 106.398,77.186 106.326 C 77.358 106.260,77.446 106.122,77.382 106.020 C 77.201 105.726,76.875 105.802,76.875 106.139 M64.306 107.639 C 64.066 107.879,64.154 108.125,64.479 108.125 C 64.651 108.125,64.792 107.984,64.792 107.813 C 64.792 107.487,64.545 107.399,64.306 107.639 M53.960 108.434 C 53.691 109.139,53.695 109.375,53.973 109.375 C 54.343 109.375,54.827 108.773,54.755 108.402 C 54.643 107.828,54.183 107.846,53.960 108.434 M84.010 108.796 C 83.753 108.920,83.542 109.195,83.542 109.407 C 83.542 110.021,84.105 109.852,84.344 109.167 C 84.464 108.823,84.543 108.548,84.520 108.556 C 84.498 108.564,84.268 108.672,84.010 108.796 M55.833 109.629 C 55.833 109.814,55.776 110.114,55.707 110.295 C 55.637 110.477,55.673 110.625,55.787 110.625 C 56.080 110.625,56.276 109.734,56.035 109.493 C 55.905 109.363,55.833 109.412,55.833 109.629 M81.458 109.688 C 81.458 109.886,81.658 110.000,82.005 110.000 C 82.467 110.000,82.511 109.952,82.292 109.688 C 82.149 109.516,81.903 109.375,81.745 109.375 C 81.587 109.375,81.458 109.516,81.458 109.688 M60.833 110.707 C 60.833 111.134,60.907 111.437,60.997 111.382 C 61.192 111.261,61.174 110.272,60.974 110.071 C 60.897 109.994,60.833 110.280,60.833 110.707 M81.667 110.707 C 81.667 110.925,81.848 111.042,82.188 111.042 C 82.474 111.042,82.708 110.948,82.708 110.833 C 82.708 110.719,82.622 110.625,82.517 110.625 C 82.412 110.625,82.177 110.568,81.996 110.499 C 81.780 110.416,81.667 110.487,81.667 110.707 M62.210 111.371 C 61.982 111.964,62.076 112.241,62.543 112.363 C 63.170 112.527,63.209 112.433,62.823 111.686 C 62.441 110.948,62.384 110.918,62.210 111.371 M91.458 111.458 C 91.458 111.688,91.502 111.875,91.555 111.875 C 91.608 111.875,91.752 111.688,91.875 111.458 C 92.053 111.126,92.033 111.042,91.778 111.042 C 91.597 111.042,91.458 111.223,91.458 111.458 M76.971 112.514 C 76.895 112.636,76.885 112.788,76.949 112.852 C 77.121 113.023,77.708 112.756,77.708 112.507 C 77.708 112.224,77.146 112.229,76.971 112.514 M89.583 112.604 C 89.583 112.776,89.677 112.917,89.792 112.917 C 89.906 112.917,90.000 112.776,90.000 112.604 C 90.000 112.432,89.906 112.292,89.792 112.292 C 89.677 112.292,89.583 112.432,89.583 112.604 M78.594 113.697 C 78.451 113.745,78.333 113.868,78.333 113.969 C 78.333 114.071,78.464 114.103,78.625 114.042 C 78.785 113.980,78.979 114.032,79.056 114.156 C 79.204 114.395,79.583 114.261,79.583 113.970 C 79.583 113.756,78.943 113.580,78.594 113.697 M90.697 115.106 C 90.564 115.391,90.507 115.625,90.570 115.625 C 90.716 115.625,91.235 114.944,91.243 114.740 C 91.258 114.394,90.923 114.618,90.697 115.106 M57.821 115.194 C 57.667 115.443,58.059 115.690,58.337 115.519 C 58.570 115.375,58.417 115.000,58.125 115.000 C 58.024 115.000,57.887 115.087,57.821 115.194 M81.667 115.208 C 81.667 115.323,81.807 115.417,81.979 115.417 C 82.151 115.417,82.292 115.323,82.292 115.208 C 82.292 115.094,82.151 115.000,81.979 115.000 C 81.807 115.000,81.667 115.094,81.667 115.208 M82.964 116.289 C 83.010 116.425,83.158 116.574,83.294 116.619 C 83.447 116.670,83.493 116.574,83.415 116.372 C 83.270 115.993,82.839 115.914,82.964 116.289 M63.958 116.875 C 63.958 116.990,64.146 117.083,64.375 117.083 C 64.604 117.083,64.792 116.990,64.792 116.875 C 64.792 116.760,64.604 116.667,64.375 116.667 C 64.146 116.667,63.958 116.760,63.958 116.875 M66.250 117.083 C 66.250 117.198,66.443 117.292,66.679 117.292 C 66.915 117.292,67.050 117.198,66.979 117.083 C 66.908 116.969,66.715 116.875,66.550 116.875 C 66.385 116.875,66.250 116.969,66.250 117.083 M57.421 117.251 C 57.346 117.372,57.386 117.534,57.509 117.610 C 57.633 117.686,57.837 117.998,57.962 118.301 C 58.158 118.775,58.204 118.798,58.282 118.462 C 58.333 118.247,58.287 118.013,58.180 117.942 C 58.073 117.871,57.889 117.636,57.771 117.421 C 57.640 117.181,57.505 117.115,57.421 117.251 M58.958 117.488 C 58.958 117.710,59.052 117.950,59.167 118.021 C 59.285 118.094,59.375 117.919,59.375 117.616 C 59.375 117.323,59.281 117.083,59.167 117.083 C 59.052 117.083,58.958 117.265,58.958 117.488 M83.805 117.436 C 83.998 117.629,84.215 117.729,84.287 117.658 C 84.492 117.453,84.177 117.083,83.797 117.083 C 83.479 117.083,83.480 117.111,83.805 117.436 M83.765 119.102 C 83.757 119.353,83.844 119.617,83.958 119.688 C 84.205 119.840,84.205 119.636,83.958 119.063 C 83.786 118.661,83.779 118.662,83.765 119.102 M87.917 120.565 C 87.917 121.275,87.944 121.312,88.251 121.005 C 88.464 120.792,88.534 120.512,88.445 120.232 C 88.222 119.529,87.917 119.722,87.917 120.565 M80.271 124.560 C 79.972 125.039,80.094 125.199,80.647 125.055 C 80.878 124.994,81.034 124.804,81.000 124.626 C 80.907 124.146,80.550 124.114,80.271 124.560 M76.370 126.849 C 76.308 126.949,76.490 127.031,76.775 127.031 C 77.059 127.031,77.292 126.949,77.292 126.849 C 77.292 126.749,77.110 126.667,76.887 126.667 C 76.665 126.667,76.432 126.749,76.370 126.849 M79.167 126.875 C 79.167 126.990,79.307 127.083,79.479 127.083 C 79.651 127.083,79.792 126.990,79.792 126.875 C 79.792 126.760,79.651 126.667,79.479 126.667 C 79.307 126.667,79.167 126.760,79.167 126.875 M83.333 127.292 C 83.333 127.406,83.474 127.500,83.646 127.500 C 83.818 127.500,83.958 127.406,83.958 127.292 C 83.958 127.177,83.818 127.083,83.646 127.083 C 83.474 127.083,83.333 127.177,83.333 127.292 M70.848 128.306 C 70.733 128.520,70.699 128.754,70.771 128.827 C 71.011 129.066,71.678 128.963,71.791 128.669 C 71.857 128.496,72.085 128.419,72.357 128.479 C 72.727 128.559,72.754 128.535,72.500 128.352 C 72.328 128.227,71.906 128.178,71.563 128.242 C 71.089 128.330,71.013 128.306,71.250 128.141 C 71.450 128.002,71.471 127.922,71.309 127.920 C 71.170 127.918,70.963 128.092,70.848 128.306 M84.001 129.018 C 83.520 129.529,83.226 130.743,83.537 130.935 C 83.762 131.073,84.202 129.810,84.028 129.527 C 83.950 129.401,83.995 129.373,84.136 129.460 C 84.271 129.543,84.432 129.468,84.500 129.291 C 84.738 128.672,84.465 128.523,84.001 129.018 M68.958 128.971 C 68.958 129.092,69.052 129.133,69.167 129.063 C 69.281 128.992,69.375 129.033,69.375 129.154 C 69.375 129.276,69.469 129.375,69.583 129.375 C 69.698 129.375,69.792 129.234,69.792 129.063 C 69.792 128.889,69.606 128.750,69.375 128.750 C 69.146 128.750,68.958 128.849,68.958 128.971 M65.740 130.346 C 66.157 130.651,66.467 130.636,66.526 130.307 C 66.546 130.196,66.290 130.095,65.956 130.083 C 65.394 130.063,65.379 130.082,65.740 130.346 M64.304 131.614 C 64.236 131.724,64.315 131.991,64.479 132.209 C 64.709 132.513,64.779 132.532,64.782 132.292 C 64.787 131.847,64.452 131.373,64.304 131.614 M80.833 131.875 C 80.833 131.990,80.974 132.083,81.146 132.083 C 81.318 132.083,81.458 131.990,81.458 131.875 C 81.458 131.760,81.318 131.667,81.146 131.667 C 80.974 131.667,80.833 131.760,80.833 131.875 " stroke="none" fill="#0424ac" fill-rule="evenodd"></path></g></svg>