<svg width="25" height="26" viewBox="0 0 25 26" fill="none" xmlns="http://www.w3.org/2000/svg">
<path d="M11.4561 20.6349C12.3936 20.6349 13.2662 20.4484 14.0738 20.0755C14.8815 19.7026 15.5714 19.1859 16.1436 18.5255C13.9561 18.3866 12.1071 17.5227 10.5967 15.9338C9.08631 14.3449 8.33111 12.4397 8.33111 10.2182C8.33111 9.99251 8.33979 9.77099 8.35715 9.55362C8.37451 9.33626 8.40055 9.12376 8.43527 8.91612C7.46305 9.45432 6.6818 10.2054 6.09152 11.1692C5.50124 12.1331 5.20611 13.205 5.20611 14.3849C5.20611 16.121 5.81374 17.5967 7.02902 18.812C8.2443 20.0272 9.71999 20.6349 11.4561 20.6349ZM19.1124 17.6922C18.4526 19.2199 17.4328 20.4397 16.053 21.3515C14.6731 22.2633 13.1408 22.7189 11.4561 22.7182C9.12972 22.7182 7.15923 21.9109 5.54465 20.2963C3.93006 18.6817 3.12277 16.7113 3.12277 14.3849C3.12277 12.3883 3.76062 10.6262 5.03631 9.09842C6.31201 7.57064 7.93111 6.6071 9.89361 6.20779C10.1019 6.17307 10.2887 6.19043 10.454 6.25987C10.6193 6.32932 10.745 6.44217 10.8311 6.59842C10.9179 6.75467 10.97 6.94147 10.9874 7.15883C11.0047 7.37619 10.97 7.60605 10.8832 7.84842C10.7269 8.23036 10.6099 8.62099 10.5321 9.02029C10.4544 9.4196 10.4151 9.8189 10.4144 10.2182C10.4144 11.9543 11.0221 13.43 12.2374 14.6453C13.4526 15.8606 14.9283 16.4682 16.6644 16.4682C16.8554 16.4682 17.0377 16.464 17.2113 16.4557C17.3849 16.4474 17.5585 16.4255 17.7321 16.3901C18.0446 16.338 18.3009 16.3467 18.5009 16.4161C18.7009 16.4856 18.8613 16.5897 18.9821 16.7286C19.1037 16.8675 19.1773 17.0196 19.203 17.1849C19.2287 17.3502 19.1985 17.5192 19.1124 17.6922Z" fill="#424242"/>
<path d="M17.7184 5.17285V13.5307" stroke="#275DF6" stroke-width="2.67452"/>
<path d="M21.8973 9.35156L13.5394 9.35156" stroke="#275DF6" stroke-width="2.67452"/>
</svg>
