<svg width="25" height="26" viewBox="0 0 25 26" fill="currentColor" xmlns="http://www.w3.org/2000/svg">
<path d="M6.89583 12.0872C8.39583 15.0352 10.8125 17.4414 13.7604 18.9518L16.0521 16.6602C16.3333 16.3789 16.75 16.2852 17.1146 16.4102C18.2812 16.7956 19.5417 17.0039 20.8333 17.0039C21.4062 17.0039 21.875 17.4727 21.875 18.0456V21.681C21.875 22.2539 21.4062 22.7227 20.8333 22.7227C11.0521 22.7227 3.125 14.7956 3.125 5.01432C3.125 4.44141 3.59375 3.97266 4.16667 3.97266H7.8125C8.38542 3.97266 8.85417 4.44141 8.85417 5.01432C8.85417 6.31641 9.0625 7.56641 9.44792 8.73307C9.5625 9.09766 9.47917 9.50391 9.1875 9.79557L6.89583 12.0872Z" fill="black"/>
</svg>
